<svg xmlns="http://www.w3.org/2000/svg" viewBox="0 0 500 500"><g id="freepik--background-simple--inject-213"><path d="M77.08,170.06l1.54-3.56c13-30,41.09-50.88,73.4-53.27a85.5,85.5,0,0,1,12.5,0c30,2.23,58.36,20.77,72.75,47.53,8.46,15.75,12.82,34.61,26.36,46.17,17.61,15,43.6,12,66.28,8.17s48.68-6.81,66.24,8.31c11,9.47,16.12,24.38,17.34,38.91,3.23,38.49-18.7,76.32-50.22,98S292.09,388.93,254,386.56c-53.35-3.32-106.68-25.27-142.46-65.57S59.93,221.24,77.08,170.06Z" style="fill:#f5f5f5"></path></g><g id="freepik--Floor--inject-213"><path d="M472.38,416.45c0,.15-99.57.26-222.37.26s-222.39-.11-222.39-.26,99.55-.26,222.39-.26S472.38,416.31,472.38,416.45Z" style="fill:#263238"></path></g><g id="freepik--Furniture--inject-213"><path d="M405.57,239.48a3.58,3.58,0,0,0-3.42,1.46,5.71,5.71,0,0,0-.82,3.47,5.53,5.53,0,0,0,.94,3.25,6.09,6.09,0,0,0,3.94,2.14,9,9,0,0,0,4.25-.53,11.6,11.6,0,0,0-.33-4.69,7.52,7.52,0,0,0-1.38-3.16A5.19,5.19,0,0,0,405.57,239.48Z" style="fill:#455a64"></path><path d="M436.66,236.19a3.23,3.23,0,0,1-.14.49c-.11.35-.27.8-.45,1.37-.41,1.19-1,2.92-1.63,5.06s-1.39,4.71-2.13,7.59-1.44,6.05-2.08,9.41-1.12,6.59-1.5,9.54-.62,5.6-.78,7.84-.27,4.05-.33,5.3c0,.6-.05,1.08-.07,1.44a2.37,2.37,0,0,1-.06.51,2.91,2.91,0,0,1,0-.51c0-.36,0-.84,0-1.44,0-1.26.08-3.08.21-5.32s.37-4.91.71-7.86.84-6.19,1.47-9.56,1.37-6.56,2.11-9.44,1.51-5.44,2.21-7.58,1.29-3.85,1.74-5c.22-.55.39-1,.52-1.35A2,2,0,0,1,436.66,236.19Z" style="fill:#263238"></path><path d="M408.54,246.2a2.14,2.14,0,0,1,.28.39l.71,1.15c.63,1,1.48,2.49,2.48,4.36s2.13,4.11,3.29,6.65,2.33,5.4,3.43,8.43,2,6,2.76,8.67,1.31,5.16,1.72,7.23.71,3.76.88,4.93c.07.56.14,1,.19,1.35a4.12,4.12,0,0,1,0,.47,1.46,1.46,0,0,1-.12-.46c-.06-.34-.15-.79-.25-1.34-.21-1.16-.54-2.83-1-4.9s-1-4.5-1.8-7.19-1.68-5.61-2.77-8.64-2.27-5.86-3.39-8.41-2.24-4.8-3.22-6.67-1.79-3.38-2.37-4.4l-.66-1.19A2.73,2.73,0,0,1,408.54,246.2Z" style="fill:#263238"></path><rect x="417.87" y="280.73" width="16.8" height="1.58" rx="0.59" style="fill:#FFFFFF"></rect><path d="M440.15,298.47c-.55-6.15-5.4-7-6.33-7.64a2.89,2.89,0,0,1-.54-.51,4.13,4.13,0,0,1-.86-2.58v-6.22H420.26v6.22a4.13,4.13,0,0,1-.86,2.58,2.89,2.89,0,0,1-.54.51c-.93.65-5.78,1.49-6.34,7.64s-2.6,20.13,1,24.6c3.35,4.12,6.62,4.37,12.07,4.38h1.44c5.45,0,8.72-.26,12.07-4.38C442.76,318.6,440.71,304.62,440.15,298.47Z" style="fill:#FFFFFF"></path><path d="M434.28,282.36c0,.1-3.59.18-8,.18s-8-.08-8-.18,3.58-.18,8-.18S434.28,282.26,434.28,282.36Z" style="fill:#263238"></path><path d="M444,231.46a4.33,4.33,0,0,0-3.49-2.48,8.74,8.74,0,0,0-4.38.75A6.75,6.75,0,0,0,433,232a5,5,0,0,0-.32,4.52,9,9,0,0,0,2.9,3.63,15.62,15.62,0,0,0,5.13-2.32,8.53,8.53,0,0,0,2.85-2.62A4.29,4.29,0,0,0,444,231.46Z" style="fill:#455a64"></path><path d="M404.8,262a3.4,3.4,0,0,1,0-3.37,7,7,0,0,1,2.46-2.48,5.3,5.3,0,0,1,2.88-1,3.94,3.94,0,0,1,3.05,1.83,7.15,7.15,0,0,1,1,3.5,12.41,12.41,0,0,1-3.81,2.26,6.56,6.56,0,0,1-3,.65A3.37,3.37,0,0,1,404.8,262Z" style="fill:#455a64"></path><path d="M421.32,254.38a3.4,3.4,0,0,1,0-3.37,7,7,0,0,1,2.46-2.48,5.3,5.3,0,0,1,2.88-1,3.94,3.94,0,0,1,3.05,1.83,7.15,7.15,0,0,1,1,3.5,12.41,12.41,0,0,1-3.81,2.26,6.56,6.56,0,0,1-3,.65A3.37,3.37,0,0,1,421.32,254.38Z" style="fill:#455a64"></path><path d="M443.16,253.2a3.48,3.48,0,0,0,.47-3.39,6.94,6.94,0,0,0-2.14-2.82,5.31,5.31,0,0,0-2.76-1.41,4,4,0,0,0-3.3,1.43,7.12,7.12,0,0,0-1.51,3.38,12.45,12.45,0,0,0,3.52,2.78,6.65,6.65,0,0,0,2.9,1.05A3.42,3.42,0,0,0,443.16,253.2Z" style="fill:#455a64"></path><path d="M420.36,244.61a3.15,3.15,0,0,0-2.06-2.6,4.05,4.05,0,0,0-2.91.48,4.83,4.83,0,0,0-2.26,2,7,7,0,0,0-.58,4.35,8.9,8.9,0,0,0,1.57,3.68,9.16,9.16,0,0,0,3.53-2,7.1,7.1,0,0,0,2.07-2.37A6,6,0,0,0,420.36,244.61Z" style="fill:#455a64"></path><path d="M427.7,235.91a3.57,3.57,0,0,0-3.42,1.46,5.86,5.86,0,0,0-.82,3.47,5.49,5.49,0,0,0,1,3.24,6,6,0,0,0,3.94,2.15,8.87,8.87,0,0,0,4.25-.54,11.56,11.56,0,0,0-.34-4.68,7.45,7.45,0,0,0-1.37-3.16A5.13,5.13,0,0,0,427.7,235.91Z" style="fill:#455a64"></path><path d="M414.51,246.74a12.55,12.55,0,0,1-.1,1.81,37.1,37.1,0,0,0-.07,4.36,30.43,30.43,0,0,0,.54,4.31,13.37,13.37,0,0,1,.35,1.78,6.73,6.73,0,0,1-.6-1.72,21.28,21.28,0,0,1-.65-4.36,26.2,26.2,0,0,1,.17-4.39A7.62,7.62,0,0,1,414.51,246.74Z" style="fill:#263238"></path><path d="M417.83,265.05c-.1.05-.72-1.31-1.95-2.64a10.41,10.41,0,0,0-1.73-1.52c-.48-.34-.82-.46-.81-.52s.4,0,1,.3a7.79,7.79,0,0,1,1.86,1.49A6.27,6.27,0,0,1,417.83,265.05Z" style="fill:#263238"></path><path d="M430.4,252.49A5.23,5.23,0,0,1,431,255a5.34,5.34,0,0,1-.3,2.56c-.11,0,0-1.15-.06-2.54S430.3,252.52,430.4,252.49Z" style="fill:#263238"></path><path d="M434.72,249.21a12.39,12.39,0,0,1-1.54,2.53,11.67,11.67,0,0,1-1.85,2.33,12.39,12.39,0,0,1,1.55-2.54A12,12,0,0,1,434.72,249.21Z" style="fill:#263238"></path><path d="M432.44,249a6.74,6.74,0,0,1-.07-2.19,6.65,6.65,0,0,1,.28-2.18,6.37,6.37,0,0,1,.08,2.2A6.71,6.71,0,0,1,432.44,249Z" style="fill:#263238"></path><path d="M413.79,309.3a11.71,11.71,0,0,1-.24-2.3c-.08-1.44-.11-3.42,0-5.61,0-1.09.1-2.13.24-3.08a6.06,6.06,0,0,1,.83-2.42,3.64,3.64,0,0,1,1.23-1.21,1.39,1.39,0,0,1,.59-.22,4.28,4.28,0,0,0-1.6,1.57,6.1,6.1,0,0,0-.71,2.33c-.12.92-.16,2-.22,3.05-.1,2.18-.1,4.15-.09,5.58A17,17,0,0,1,413.79,309.3Z" style="fill:#263238"></path><path d="M393.51,415.66a2.28,2.28,0,0,1-.63-.09,2.07,2.07,0,0,1-1.51-2V388.82h.55v24.72a1.57,1.57,0,0,0,2.88.86l16.78-25.73.47.3L395.26,414.7A2.06,2.06,0,0,1,393.51,415.66Z" style="fill:#263238"></path><path d="M460.17,415.66a2.06,2.06,0,0,1-1.75-1L441.63,389l.47-.3,16.78,25.73a1.57,1.57,0,0,0,2.88-.86V388.82h.55v24.72a2.08,2.08,0,0,1-1.52,2A2.27,2.27,0,0,1,460.17,415.66Z" style="fill:#263238"></path><rect x="382.1" y="324.45" width="86.19" height="66.94" style="fill:#6f4439"></rect><path d="M463.28,354.66s0-.15,0-.43,0-.7,0-1.25c0-1.1,0-2.72,0-4.81,0-4.19,0-10.27-.05-17.91l.1.1-76.37.05h0l.15-.15c0,8.48,0,16.71,0,24.4l-.14-.14,54.64.06,15.95,0,4.28,0h-4.21l-15.92,0-54.74.07h-.15V330.12h.15l76.37.05h.1v.09c0,7.66,0,13.77-.06,18,0,2.08,0,3.69,0,4.79,0,.53,0,.94,0,1.23S463.28,354.66,463.28,354.66Z" style="fill:#263238"></path><path d="M463.28,383.59s0-.15,0-.43,0-.7,0-1.25c0-1.1,0-2.72,0-4.81,0-4.19,0-10.27-.05-17.9l.1.09-76.37,0h0l.15-.14c0,8.47,0,16.7,0,24.39l-.14-.14,54.64.07,15.95,0,4.28,0h0l-4.25,0-15.92,0-54.74.07h-.15V359.05h.15l76.37.05h.1v.1c0,7.65,0,13.76-.06,18,0,2.08,0,3.69,0,4.79,0,.53,0,.95,0,1.23S463.28,383.59,463.28,383.59Z" style="fill:#263238"></path><polygon points="409.44 330.12 411.92 332.64 440.36 332.64 443.19 330.12 409.44 330.12" style="fill:#263238"></polygon><polygon points="409.55 359.05 412.03 361.57 440.47 361.57 443.3 359.05 409.55 359.05" style="fill:#263238"></polygon></g><g id="freepik--Shelf--inject-213"><rect x="36.8" y="99.29" width="97.02" height="12.3" style="fill:#ae7461"></rect><path d="M129.79,95a4.78,4.78,0,0,1,7.37-3.11A8,8,0,0,1,130,95" style="fill:#455a64"></path><path d="M130.86,96a3.41,3.41,0,0,1-.69,3.79,8.69,8.69,0,0,1-3.5,2.08,6.21,6.21,0,0,1,4.21-6.24" style="fill:#455a64"></path><path d="M127.59,90.31a5.51,5.51,0,0,1-7.22,3.35,7.59,7.59,0,0,1,2.95-3.4,3.62,3.62,0,0,1,4.24.44" style="fill:#455a64"></path><path d="M128,88.84a3.25,3.25,0,0,1,3.42-1.72,5.62,5.62,0,0,1,3.41,2.12,5,5,0,0,1-6.72-.9" style="fill:#455a64"></path><path d="M132.18,101.64a4.41,4.41,0,0,1,0,4.82,7.78,7.78,0,0,1-4,3,10.29,10.29,0,0,1,.56-5,5.25,5.25,0,0,1,3.67-3.21" style="fill:#455a64"></path><path d="M129,85.2A4,4,0,0,0,123,83.4,3.45,3.45,0,0,0,129,85" style="fill:#455a64"></path><path d="M128.38,81.05a5.18,5.18,0,0,0,7.36-2.43,11.58,11.58,0,0,0-3.05-.67,5.05,5.05,0,0,0-3,.69,2.74,2.74,0,0,0-1.31,2.41" style="fill:#455a64"></path><path d="M125.69,79.38A4.24,4.24,0,0,0,127.22,73a8.88,8.88,0,0,0-2.71,3.42,3.4,3.4,0,0,0-.36,1.59,1.5,1.5,0,0,0,.87,1.3" style="fill:#455a64"></path><path d="M118.48,87.44s0,0,0-.11,0-.18,0-.3.11-.67.22-1.18a10.6,10.6,0,0,1,1.67-4,6.42,6.42,0,0,1,2.23-2,4.59,4.59,0,0,1,3.32-.41,3.88,3.88,0,0,1,1.62.84,3.51,3.51,0,0,1,1,1.58,7,7,0,0,1-.13,4,27.34,27.34,0,0,0-1,4,6.3,6.3,0,0,0,.06,2,4.1,4.1,0,0,0,.78,1.75,6.14,6.14,0,0,0,1.39,1.18,8.1,8.1,0,0,1,1.32,1,5.39,5.39,0,0,1,1.45,2.58,5.12,5.12,0,0,1,0,2.46,5.53,5.53,0,0,1-.71,1.72,6.93,6.93,0,0,1-1,1.24l.09-.07a1.58,1.58,0,0,0,.23-.2,5.53,5.53,0,0,0,.77-.92,5.54,5.54,0,0,0,.78-4.26,5.63,5.63,0,0,0-1.48-2.67c-.76-.82-1.93-1.25-2.68-2.2a4.8,4.8,0,0,1-.79-3.59,27,27,0,0,1,1-4,7.23,7.23,0,0,0,.12-4.14,3.74,3.74,0,0,0-1.1-1.67,4.06,4.06,0,0,0-1.7-.87,4.77,4.77,0,0,0-3.45.44,6.72,6.72,0,0,0-2.27,2A9,9,0,0,0,119.19,84a13.51,13.51,0,0,0-.49,1.84c-.09.51-.15.91-.18,1.18s0,.23,0,.31A.87.87,0,0,0,118.48,87.44Z" style="fill:#263238"></path><path d="M93.68,95.52a4,4,0,0,1-.7-1.24,3.5,3.5,0,0,1-.13-1.63,3.31,3.31,0,0,1,1-1.88,3.41,3.41,0,0,1,1.06-.69,4.09,4.09,0,0,1,1.34-.26c.95,0,2,.17,3.09.05a3.58,3.58,0,0,0,1.61-.56,2.57,2.57,0,0,0,1-1.48c.32-1.17.1-2.45.58-3.59a3.18,3.18,0,0,1,1.12-1.39,4.4,4.4,0,0,1,1.6-.7,4.46,4.46,0,0,1,3.22.56,6.87,6.87,0,0,1,2.19,2.09,8.28,8.28,0,0,1,1.11,2.42,28.33,28.33,0,0,1,.7,3.82q.11.66.15,1l0,.27a.66.66,0,0,0,0,.09v-.09l0-.28c0-.26-.06-.61-.11-1a24.86,24.86,0,0,0-.65-3.85,7.89,7.89,0,0,0-1.1-2.47,7,7,0,0,0-2.23-2.17,5.24,5.24,0,0,0-1.59-.6,4.23,4.23,0,0,0-1.77,0,4.33,4.33,0,0,0-1.68.73,3.32,3.32,0,0,0-1.19,1.47c-.5,1.22-.28,2.5-.58,3.62a2.33,2.33,0,0,1-.9,1.37,3.34,3.34,0,0,1-1.52.53c-1.07.13-2.1-.08-3.08,0a4,4,0,0,0-1.39.29,3.39,3.39,0,0,0-1.1.72,3.38,3.38,0,0,0-.85,3.65,3.3,3.3,0,0,0,.51.93A1.42,1.42,0,0,0,93.68,95.52Z" style="fill:#263238"></path><path d="M102.1,85.62A3.63,3.63,0,0,1,99,86.86a3.39,3.39,0,0,1-2.46-2,3.63,3.63,0,0,1,5.63.47" style="fill:#455a64"></path><path d="M99.68,89.81a3.66,3.66,0,0,1-.57,3.32,3.38,3.38,0,0,1-3,1,3.62,3.62,0,0,1,3.33-4.55" style="fill:#455a64"></path><path d="M93.55,91a3.69,3.69,0,0,1-3.25.89,3.4,3.4,0,0,1-2.23-2.31,3.85,3.85,0,0,1,3-.78,3.78,3.78,0,0,1,2.51,1.86" style="fill:#455a64"></path><path d="M106.41,82a3.82,3.82,0,0,0,.31-3.44A3.43,3.43,0,0,0,104,76.86a3.9,3.9,0,0,0-.13,3.13,3.81,3.81,0,0,0,2.35,2.06" style="fill:#455a64"></path><path d="M128.67,69.94s0,0,0-.08l-.16-.2a8.25,8.25,0,0,0-.7-.74,9.11,9.11,0,0,0-3.12-2,6.58,6.58,0,0,0-2.54-.43,5.93,5.93,0,0,0-2.84.84,4.8,4.8,0,0,0-2.11,2.48,16,16,0,0,0-.48,3.48,6,6,0,0,1-.4,1.69,4.9,4.9,0,0,1-1,1.37c-.39.41-.8.79-1.15,1.21a5.7,5.7,0,0,0-.86,1.37,7.13,7.13,0,0,0-.61,2.9,9.3,9.3,0,0,0,.32,2.56,19.93,19.93,0,0,0,1.31,3.49l.44.91.17.31a1.66,1.66,0,0,0-.13-.33c-.1-.23-.23-.54-.41-.93a20.94,20.94,0,0,1-1.24-3.48,10,10,0,0,1-.29-2.53,7.07,7.07,0,0,1,.61-2.82,5.46,5.46,0,0,1,.84-1.32c.34-.41.75-.78,1.14-1.2a5.06,5.06,0,0,0,1-1.43,6.49,6.49,0,0,0,.42-1.75,15,15,0,0,1,.46-3.43,4.6,4.6,0,0,1,2-2.39,5.81,5.81,0,0,1,2.75-.83,6.56,6.56,0,0,1,2.48.4A9.54,9.54,0,0,1,127.71,69c.32.3.56.55.71.71Z" style="fill:#263238"></path><path d="M114.84,76.71c.25-.34.44-.17.87-.17a2.68,2.68,0,0,1,1.22.35,4.81,4.81,0,0,1,2.43,4.65A3.72,3.72,0,0,1,115,76.66" style="fill:#455a64"></path><path d="M126.4,68.65c.08-.42.32-.35.71-.53a2.53,2.53,0,0,1,1.25-.21,4.78,4.78,0,0,1,4.19,3.15,3.73,3.73,0,0,1-6.06-2.53" style="fill:#455a64"></path><path d="M113.49,85a4.3,4.3,0,0,1,6.72-.9,5.34,5.34,0,0,1-3.2,2,5.44,5.44,0,0,1-3.74-.76" style="fill:#455a64"></path><path d="M113.46,79a4.34,4.34,0,0,1-5.27-4.31,3.9,3.9,0,0,1,5.4,4.25" style="fill:#455a64"></path><path d="M116.64,71.36A4.37,4.37,0,0,1,110.23,69a3.92,3.92,0,0,1,6.52,2.21" style="fill:#455a64"></path><path d="M117.72,68.86a4.37,4.37,0,0,1,6.41,2.32A3.91,3.91,0,0,1,117.62,69" style="fill:#455a64"></path><path d="M119.27,67.33a4.36,4.36,0,0,1-3.44-5.88,3.91,3.91,0,0,1,3.59,5.87" style="fill:#455a64"></path><path d="M123.86,66.71a4.45,4.45,0,0,1-.31-3.77,4.41,4.41,0,0,1,2.76-2.59A3.92,3.92,0,0,1,124,66.82" style="fill:#455a64"></path><rect x="104.82" y="85.76" width="19.9" height="3.53" style="fill:#FFFFFF"></rect><polygon points="106.31 88.59 108.98 99.53 121.22 99.53 123.24 88.59 106.31 88.59" style="fill:#FFFFFF"></polygon><path d="M124.71,89.29s-4.49.07-10,.07-10,0-10-.07,4.49-.07,10-.07S124.71,89.26,124.71,89.29Z" style="fill:#263238"></path><polygon points="41.33 98.82 41.22 88.79 46.68 88.79 46.86 98.82 41.33 98.82" style="fill:#f5f5f5"></polygon><path d="M46.35,90.58a21,21,0,0,1-2.53.08,21.27,21.27,0,0,1-2.54-.08,18,18,0,0,1,2.54-.09A17.77,17.77,0,0,1,46.35,90.58Z" style="fill:#e0e0e0"></path><path d="M46.35,92.12a17.77,17.77,0,0,1-2.53.09,18,18,0,0,1-2.54-.09A21.27,21.27,0,0,1,43.82,92,21,21,0,0,1,46.35,92.12Z" style="fill:#e0e0e0"></path><path d="M46.35,93.67a17.77,17.77,0,0,1-2.53.09,18,18,0,0,1-2.54-.09,18,18,0,0,1,2.54-.09A17.77,17.77,0,0,1,46.35,93.67Z" style="fill:#e0e0e0"></path><path d="M46.35,95.22a18.8,18.8,0,0,1-2.53.08,19,19,0,0,1-2.54-.08,18,18,0,0,1,2.54-.09A17.77,17.77,0,0,1,46.35,95.22Z" style="fill:#e0e0e0"></path><path d="M46.35,96.77a21,21,0,0,1-2.53.08,21.27,21.27,0,0,1-2.54-.08,18,18,0,0,1,2.54-.09A17.77,17.77,0,0,1,46.35,96.77Z" style="fill:#e0e0e0"></path><path d="M40.75,88.46h60.48a28.6,28.6,0,0,1,0,10.84H41v-.74h3.68a1.74,1.74,0,0,0,1.74-1.74v-6a1.74,1.74,0,0,0-1.74-1.74H40.75Z" style="fill:#FFFFFF"></path><path d="M99.14,99.5S99.05,97,99.05,94s0-5.56.09-5.56.08,2.48.08,5.56S99.19,99.5,99.14,99.5Z" style="fill:#263238"></path><path d="M49.65,99.5S49.56,97,49.56,94s0-5.56.09-5.56.08,2.48.08,5.56S49.69,99.5,49.65,99.5Z" style="fill:#263238"></path><path d="M100.2,99.5s-.09-2.49-.09-5.55,0-5.56.09-5.56.09,2.48.09,5.56S100.25,99.5,100.2,99.5Z" style="fill:#263238"></path><path d="M48.66,99.5S48.57,97,48.57,94s0-5.56.09-5.56.08,2.48.08,5.56S48.7,99.5,48.66,99.5Z" style="fill:#263238"></path><rect x="58.68" y="92.21" width="34.31" height="2.92" rx="1.31" style="fill:#fff"></rect><path d="M51.58,79.62V88h7.86V79.62Z" style="fill:#ebebeb"></path><path d="M94.73,78.91c1.23,3,1,6.23,0,9.69H51.16V88h2.77a4.19,4.19,0,0,0,4.19-4.19h0a4.18,4.18,0,0,0-4.19-4.19H51v-.89Z" style="fill:#455a64"></path><path d="M56.21,80.26s8.73.08,19.49.08,19.49,0,19.49-.08-8.73-.09-19.49-.09S56.21,80.21,56.21,80.26Z" style="fill:#fff"></path><path d="M55.84,87.54s8.77.08,19.59.08,19.6,0,19.6-.08-8.78-.09-19.6-.09S55.84,87.49,55.84,87.54Z" style="fill:#fff"></path><path d="M51.58,83.92a29.63,29.63,0,0,0,3.27.09,29.78,29.78,0,0,0,3.27-.09,29.78,29.78,0,0,0-3.27-.09A29.63,29.63,0,0,0,51.58,83.92Z" style="fill:#e0e0e0"></path><path d="M51.58,85.81a29.42,29.42,0,0,0,3,.08,29.3,29.3,0,0,0,3-.08,24.75,24.75,0,0,0-3-.09A24.86,24.86,0,0,0,51.58,85.81Z" style="fill:#e0e0e0"></path><path d="M51.54,87.53a13.18,13.18,0,0,0,2.18.09,13.1,13.1,0,0,0,2.17-.09,15.5,15.5,0,0,0-2.17-.08A15.59,15.59,0,0,0,51.54,87.53Z" style="fill:#e0e0e0"></path><path d="M51.52,82.22a27.56,27.56,0,0,0,3.15.09,27.45,27.45,0,0,0,3.14-.09s-1.41-.08-3.14-.08S51.52,82.18,51.52,82.22Z" style="fill:#e0e0e0"></path><path d="M51.58,80.53a17.41,17.41,0,0,0,2.43.08,17.29,17.29,0,0,0,2.43-.08A16.34,16.34,0,0,0,54,80.44,16.46,16.46,0,0,0,51.58,80.53Z" style="fill:#e0e0e0"></path><path d="M47.22,69.88v8.38H63.43V69.88Z" style="fill:#ebebeb"></path><path d="M99.57,74.15a1.62,1.62,0,0,0,0,.22,4.8,4.8,0,0,1-4.82,4.5H46.46v-.61H57.92a4.19,4.19,0,0,0,4.19-4.19h0a4.19,4.19,0,0,0-4.19-4.19H46.46V69l48.29.17A4.83,4.83,0,0,1,99.57,74.15Z" style="fill:#FFFFFF"></path><path d="M47.22,74.18s3.33.09,7.44.09,7.45,0,7.45-.09-3.34-.08-7.45-.08S47.22,74.14,47.22,74.18Z" style="fill:#e0e0e0"></path><path d="M47.46,76.07c0,.05,3.15.09,7,.09s7,0,7-.09-3.15-.08-7-.08S47.46,76,47.46,76.07Z" style="fill:#e0e0e0"></path><path d="M47.22,77.8s2.84.08,6.33.08,6.33,0,6.33-.08-2.83-.09-6.33-.09S47.22,77.75,47.22,77.8Z" style="fill:#e0e0e0"></path><path d="M47.22,72.49c0,.05,3.26.08,7.29.08s7.29,0,7.29-.08-3.26-.09-7.29-.09S47.22,72.44,47.22,72.49Z" style="fill:#e0e0e0"></path><path d="M47.46,70.79s2.9.09,6.48.09,6.49,0,6.49-.09-2.9-.08-6.49-.08S47.46,70.74,47.46,70.79Z" style="fill:#e0e0e0"></path><rect x="61.7" y="82.9" width="27.47" height="1.52" rx="0.68" transform="translate(150.87 167.33) rotate(180)" style="fill:#fff"></rect><rect x="67.19" y="73.34" width="27.47" height="1.52" rx="0.68" transform="translate(161.86 148.2) rotate(180)" style="fill:#fff"></rect><path d="M129.48,100.39a2.69,2.69,0,0,1-.15.23l-.46.64-.75,1c-.3.41-.65.88-1.08,1.38a51,51,0,0,1-8,7.78,57,57,0,0,1-6.35,4.35l-1.86,1c-.31.18-.63.35-1,.52l-1,.47-2,1-2.14.86a53.07,53.07,0,0,1-19.84,3.58A58.5,58.5,0,0,1,74.49,122a57.37,57.37,0,0,1-9.35-2.83L63,118.27c-.71-.29-1.36-.66-2-1-1.34-.62-2.55-1.39-3.76-2.07-.6-.35-1.15-.75-1.71-1.11s-1.12-.71-1.63-1.11l-1.51-1.13-.72-.56-.68-.58c-.89-.77-1.77-1.48-2.51-2.24s-1.49-1.42-2.1-2.14-1.21-1.33-1.72-1.95l-1.35-1.73a15.15,15.15,0,0,1-1-1.42l-.71-1.06-.43-.66A2.44,2.44,0,0,1,41,99.3s.07.06.17.21l.46.63c.21.29.46.64.74,1s.63.89,1.05,1.39l1.37,1.7c.52.61,1.12,1.24,1.74,1.93s1.36,1.36,2.11,2.1,1.62,1.45,2.51,2.21l.68.57.73.55,1.51,1.12c.5.4,1.07.72,1.62,1.09s1.11.75,1.71,1.1c1.2.67,2.41,1.42,3.75,2,.66.31,1.31.68,2,1l2.11.9a58.23,58.23,0,0,0,9.29,2.79,58.87,58.87,0,0,0,10.36,1.17,53.45,53.45,0,0,0,19.7-3.53l2.13-.85,2-.94,1-.46,1-.51,1.85-1a59.13,59.13,0,0,0,6.34-4.29,52.94,52.94,0,0,0,8-7.67c.44-.48.8-.94,1.11-1.35l.78-1,.49-.61A1.32,1.32,0,0,1,129.48,100.39Z" style="fill:#263238"></path><path d="M58.08,114.15a2.46,2.46,0,1,1-2.46-2.46A2.46,2.46,0,0,1,58.08,114.15Z" style="fill:#FFFFFF"></path><path d="M58.08,114.15s0-.22-.15-.58a2.43,2.43,0,0,0-.9-1.26,2.29,2.29,0,1,0-2.18,4A2.36,2.36,0,0,0,57,116a2.43,2.43,0,0,0,.9-1.26c.11-.36.11-.58.15-.58a1.08,1.08,0,0,1,0,.62,2.44,2.44,0,0,1-.88,1.44,2.56,2.56,0,0,1-2.46.41,2.63,2.63,0,0,1,0-5,2.58,2.58,0,0,1,2.46.42,2.41,2.41,0,0,1,.88,1.44A1.08,1.08,0,0,1,58.08,114.15Z" style="fill:#263238"></path><circle cx="69.98" cy="120.69" r="2.45" style="fill:#455a64"></circle><path d="M72.44,120.69s0-.22-.15-.59a2.46,2.46,0,0,0-.9-1.26,2.34,2.34,0,0,0-2.18-.29,2.27,2.27,0,0,0,0,4.27,2.34,2.34,0,0,0,2.18-.29,2.46,2.46,0,0,0,.9-1.26c.11-.37.11-.59.15-.58a1,1,0,0,1,0,.61,2.46,2.46,0,0,1-.88,1.45,2.58,2.58,0,0,1-2.46.41,2.63,2.63,0,0,1,0-5,2.58,2.58,0,0,1,2.46.42,2.41,2.41,0,0,1,.88,1.44A1.08,1.08,0,0,1,72.44,120.69Z" style="fill:#263238"></path><path d="M88.67,123a2.46,2.46,0,1,1-2.46-2.46A2.46,2.46,0,0,1,88.67,123Z" style="fill:#e0e0e0"></path><path d="M88.67,123s0-.22-.15-.58a2.47,2.47,0,0,0-.91-1.27,2.29,2.29,0,1,0,0,3.69,2.49,2.49,0,0,0,.91-1.26c.11-.37.11-.59.15-.58a1.3,1.3,0,0,1,0,.61,2.46,2.46,0,0,1-.88,1.45,2.6,2.6,0,0,1-2.47.41,2.63,2.63,0,0,1,0-4.95,2.6,2.6,0,0,1,2.47.42,2.41,2.41,0,0,1,.88,1.44A1.35,1.35,0,0,1,88.67,123Z" style="fill:#263238"></path><path d="M105.6,120a2.46,2.46,0,1,1-2.46-2.46A2.46,2.46,0,0,1,105.6,120Z" style="fill:#FFFFFF"></path><path d="M105.6,120s0-.22-.15-.58a2.47,2.47,0,0,0-.91-1.27,2.29,2.29,0,1,0,0,3.69,2.49,2.49,0,0,0,.91-1.26c.11-.36.11-.58.15-.58a1.32,1.32,0,0,1,0,.61,2.46,2.46,0,0,1-.88,1.45,2.6,2.6,0,0,1-2.47.41,2.63,2.63,0,0,1,0-5,2.6,2.6,0,0,1,2.47.42,2.41,2.41,0,0,1,.88,1.44A1.35,1.35,0,0,1,105.6,120Z" style="fill:#263238"></path><path d="M121.23,111.69a2.46,2.46,0,1,1-2.45-2.45A2.46,2.46,0,0,1,121.23,111.69Z" style="fill:#455a64"></path><path d="M121.23,111.69s0-.22-.15-.58a2.46,2.46,0,0,0-.9-1.26,2.33,2.33,0,0,0-2.18-.29,2.28,2.28,0,0,0,0,4.27,2.33,2.33,0,0,0,2.18-.29,2.44,2.44,0,0,0,.9-1.27c.11-.36.12-.58.15-.58a1.12,1.12,0,0,1,0,.62,2.41,2.41,0,0,1-.88,1.44,2.6,2.6,0,0,1-2.47.42,2.63,2.63,0,0,1,0-5,2.6,2.6,0,0,1,2.47.41,2.46,2.46,0,0,1,.88,1.45A1.09,1.09,0,0,1,121.23,111.69Z" style="fill:#263238"></path></g><g id="freepik--Device--inject-213"><rect x="191.87" y="109.12" width="182.14" height="323.32" rx="16.79" style="fill:#263238"></rect><path d="M191.91,404.09H374a0,0,0,0,1,0,0v11.83a16.46,16.46,0,0,1-16.46,16.46H209a17,17,0,0,1-17-17V404.09A0,0,0,0,1,191.91,404.09Z" style="fill:#455a64"></path><path d="M208.71,109.12H357.38A16.64,16.64,0,0,1,374,125.76v4.6a0,0,0,0,1,0,0H191.91a0,0,0,0,1,0,0v-4.43A16.8,16.8,0,0,1,208.71,109.12Z" style="fill:#455a64"></path><circle cx="283.38" cy="120.93" r="4.33" style="fill:#fff"></circle><path d="M343.75,139.64h0a25.73,25.73,0,0,1,25.72,25.73V404.08H199V142.61Z" style="fill:#ebebeb"></path><g style="opacity:0.30000000000000004"><path d="M194.63,424.56H305a33.66,33.66,0,0,0,33.65-33.65V168.54s.73-21.94,10-26.57l-56.3,9.26L297,396.15l-105,19.18S192,421.43,194.63,424.56Z"></path></g><path d="M164.82,181.9V420.08H294.39c20.27,0,36.71-11.87,36.71-44.62v-235H198.93C180.09,140.44,164.82,159,164.82,181.9Z" style="fill:#f5f5f5"></path><path d="M164.82,369.87s0-.24,0-.72,0-1.21,0-2.13c0-1.89,0-4.64-.05-8.18,0-7.12-.05-17.39-.08-30.08,0-25.41,0-60.5-.08-99.24v-28.3q0-6.84,0-13.45c0-4.38-.14-8.72.53-12.9A45.34,45.34,0,0,1,174.22,153a37.14,37.14,0,0,1,7.89-7.4,23,23,0,0,1,2.21-1.36l1.1-.64c.37-.2.76-.35,1.14-.53.77-.33,1.52-.68,2.28-1l2.31-.72a14.43,14.43,0,0,1,2.3-.53c.77-.12,1.52-.32,2.28-.38,1.52-.07,3-.23,4.43-.18l8.08,0,12.94,0,8.17,0,2.13,0,.73,0-.73,0-2.13,0-8.17,0-12.94.05-8.08,0c-1.44,0-2.89.13-4.39.2-.75.06-1.49.26-2.25.38a13.13,13.13,0,0,0-2.27.54l-2.28.72c-.75.3-1.49.65-2.24,1-.38.18-.77.32-1.13.53l-1.09.63a23.61,23.61,0,0,0-2.17,1.35,36.34,36.34,0,0,0-7.78,7.34,44.83,44.83,0,0,0-9,21.65c-.67,4.13-.48,8.45-.51,12.84v13.45c0,9.14,0,18.61,0,28.3,0,38.74-.06,73.83-.08,99.24,0,12.69-.06,23-.08,30.08,0,3.54,0,6.29,0,8.18,0,.92,0,1.63,0,2.13S164.82,369.87,164.82,369.87Z" style="fill:#263238"></path><circle cx="200.9" cy="198.3" r="14.86" style="fill:#FFFFFF"></circle><polygon points="200.03 205.28 192.35 199.35 194.42 196.67 199.57 200.65 206.89 192.22 209.45 194.44 200.03 205.28" style="fill:#fff"></polygon><path d="M351.28,140.84c-10.49,3.61-20.24,11.65-20.21,26.62v25.07H319.66V140.2l26.32-.5A14.08,14.08,0,0,1,351.28,140.84Z" style="fill:#f5f5f5"></path><rect x="227.89" y="190.65" width="73.84" height="8.67" style="fill:#e0e0e0"></rect><rect x="227.89" y="209.77" width="45.07" height="8.67" style="fill:#e0e0e0"></rect><circle cx="200.9" cy="253.93" r="14.86" style="fill:#FFFFFF"></circle><rect x="227.89" y="246.28" width="73.84" height="8.67" style="fill:#e0e0e0"></rect><rect x="227.89" y="265.41" width="45.07" height="8.67" style="fill:#e0e0e0"></rect><path d="M200.9,324.93a15.36,15.36,0,1,1,15.36-15.36A15.38,15.38,0,0,1,200.9,324.93Zm0-29.72a14.36,14.36,0,1,0,14.36,14.36A14.37,14.37,0,0,0,200.9,295.21Z" style="fill:#FFFFFF"></path><rect x="227.89" y="301.92" width="73.84" height="8.67" style="fill:#e0e0e0"></rect><rect x="227.89" y="321.05" width="45.07" height="8.67" style="fill:#e0e0e0"></rect><path d="M200.9,380.57a15.36,15.36,0,1,1,15.36-15.36A15.38,15.38,0,0,1,200.9,380.57Zm0-29.72a14.36,14.36,0,1,0,14.36,14.36A14.37,14.37,0,0,0,200.9,350.85Z" style="fill:#FFFFFF"></path><rect x="227.89" y="357.56" width="73.84" height="8.67" style="fill:#e0e0e0"></rect><rect x="227.89" y="376.68" width="45.07" height="8.67" style="fill:#e0e0e0"></rect><g style="opacity:0.30000000000000004"><path d="M288.83,380.07H274l-7.73,15.47c0,.34,20.16,24.54,20.16,24.54h11.72C277.12,412.88,288.83,380.07,288.83,380.07Z"></path></g><path d="M115.82,369.87c0,1.17-4.32,44,24,50.21H298.16S268.29,410,275,369.87Z" style="fill:#ebebeb"></path><polygon points="200.03 261.48 192.35 255.55 194.42 252.87 199.57 256.85 206.89 248.42 209.45 250.64 200.03 261.48" style="fill:#fff"></polygon><path d="M294.39,420.08l.79-.05,2.34-.12c1,0,2.29-.26,3.79-.42.75-.08,1.53-.31,2.38-.47a18.46,18.46,0,0,0,2.67-.69,30.33,30.33,0,0,0,12.28-6.87,35.17,35.17,0,0,0,9.58-15.92,60.14,60.14,0,0,0,2.13-10.73c.1-.95.19-1.9.29-2.87s.08-1.95.13-2.94c.07-2,.14-4,.11-6.06,0-8.23,0-17,0-26.29,0-18.51,0-38.87,0-60.23,0-42.74.05-81.43.06-109.44,0-3.51,0-6.83,0-10a30,30,0,0,1,1.59-8.78,25.37,25.37,0,0,1,3.66-6.84,29.58,29.58,0,0,1,4.46-4.77,28.7,28.7,0,0,1,7.67-4.71,21.91,21.91,0,0,1,3-1l-.75.28c-.5.17-1.24.44-2.18.85a29.54,29.54,0,0,0-7.58,4.77,28.91,28.91,0,0,0-4.39,4.77,25.08,25.08,0,0,0-3.59,6.79,30,30,0,0,0-1.53,8.69c-.05,3.15,0,6.49,0,10,0,28,.05,66.7.09,109.44,0,21.36,0,41.72,0,60.23,0,9.26,0,18.06,0,26.29,0,2.06-.05,4.08-.12,6.07-.05,1,0,2-.14,3l-.3,2.89a59.63,59.63,0,0,1-2.18,10.78,35.31,35.31,0,0,1-9.73,16,30.49,30.49,0,0,1-12.42,6.86,20.2,20.2,0,0,1-2.69.66c-.86.16-1.65.38-2.4.45-1.5.15-2.77.36-3.8.38l-2.35.06Z" style="fill:#263238"></path><path d="M139.79,420.08s-.36-.07-1.07-.25l-1.31-.34c-.52-.15-1.1-.39-1.77-.62a25.2,25.2,0,0,1-10-7c-3.53-4-6.54-9.91-8.25-17.15a83.65,83.65,0,0,1-1.79-24.86v-.21h.2l79.25-.05,79.9.05h.25l0,.25c-1.5,8.94-1.25,17.39.7,24.44a38.87,38.87,0,0,0,18.44,23.86,31.83,31.83,0,0,0,2.84,1.44c.65.29,1,.43,1,.43a8.14,8.14,0,0,1-1-.37,28,28,0,0,1-2.87-1.38,38.15,38.15,0,0,1-9.55-7.44,39.12,39.12,0,0,1-9.16-16.45c-2-7.1-2.28-15.61-.79-24.6l.21.25-79.9,0-79.25,0,.22-.22a83.83,83.83,0,0,0,1.7,24.78c1.67,7.2,4.63,13.1,8.1,17.07a25.4,25.4,0,0,0,9.85,7c.66.24,1.23.49,1.75.65l1.3.37Z" style="fill:#263238"></path><path d="M307.68,125.29c.46-5.29,4.78-9.4,9.21-12.33a7.5,7.5,0,0,0,1.94-1.6,2.34,2.34,0,0,0,.36-2.37c-.51-1-1.79-1.22-2.89-1.34l-5.33-.57,1-7.48a38.38,38.38,0,0,1,9.06,1.56,13.07,13.07,0,0,1,7.21,5.43,7.94,7.94,0,0,1-.25,8.68c-1.41,1.81-3.7,2.76-5.16,4.52a7,7,0,0,0-.9,7.28c.82,1.69,2.36,3.14,2.41,5,.07,2.57-2.74,4.31-5.3,4.53a10.46,10.46,0,0,1-11.34-11.33Z" style="fill:#FFFFFF"></path><path d="M311.1,109.71a17.24,17.24,0,0,0,1.48-16A19,19,0,0,0,300.34,83a21.18,21.18,0,0,0-16.2,2.17,45.23,45.23,0,0,1-5.5,3.2c-2,.79-9,1.83-10.72.6l-9.15,19.21,4.27,1.16Z" style="fill:#FFFFFF"></path><path d="M238.72,100.7s-5.47-4.57-5.29-6c.3-2.44,7.27-2.85,7.27-2.85s.1-2.14,3.79-4.93,5.63-2.78,5.63-2.78,1.8-8.6,4.38-8.5,6.22,9.29,6.22,9.29,7.52,1,8.33,8.12-1.26,14-5.32,14.89-19.72,5.25-22.8-2" style="fill:#FFFFFF"></path><path d="M251.28,100l.26,0A.58.58,0,0,0,251.28,100Z" style="fill:#455a64"></path><polygon points="251.54 99.92 251.54 99.92 251.55 99.91 251.54 99.92" style="fill:#455a64"></polygon><g style="opacity:0.30000000000000004"><path d="M252.23,84.21a21.12,21.12,0,0,1,5.88.44q-1-2.58-1.9-5.18c-.19-.5-.63-1.24-1.16-1.24a1.31,1.31,0,0,0-1,.68,18.86,18.86,0,0,0-1.71,5.16"></path></g><g style="opacity:0.30000000000000004"><path d="M294.72,97.48a31.18,31.18,0,0,0-3.17-5.55,7.56,7.56,0,0,0-3.2,8,8.07,8.07,0,0,0-6.08,3,5.2,5.2,0,0,0,.22,6.46l8.78-1.21a6.27,6.27,0,0,0,4.09-4.54A10.3,10.3,0,0,0,294.72,97.48Z"></path></g><path d="M297.06,88.82c-8.08-.5-8.69,8.29-5.37,13.3a10.83,10.83,0,0,0-7,1.07,5.34,5.34,0,0,0-2.39,2.21c-.49,1,.17,3.54,1,4.31h24" style="fill:#FFFFFF"></path><path d="M307.25,109.71a2.84,2.84,0,0,1-.47,0l-1.36,0-5.05,0-17.08.05h-.07l0-.05a4.89,4.89,0,0,1-1-2.14,3.82,3.82,0,0,1,.05-2.43,5.22,5.22,0,0,1,2-2,10.45,10.45,0,0,1,2.46-1.06,10.83,10.83,0,0,1,5-.26l-.15.22a11.78,11.78,0,0,1-1.86-7.08A6.87,6.87,0,0,1,292.17,90a6.63,6.63,0,0,1,3.54-1.23h1l.34,0-.35,0-1,0a6.8,6.8,0,0,0-3.44,1.28,6.68,6.68,0,0,0-2.32,5,11.64,11.64,0,0,0,1.85,6.9l.18.28-.33-.06a10.74,10.74,0,0,0-4.89.27,10.13,10.13,0,0,0-2.39,1,4.81,4.81,0,0,0-1.86,1.83,3.54,3.54,0,0,0,0,2.21,4.79,4.79,0,0,0,.91,2l-.11,0,17.08,0,5.05,0,1.36,0A2.42,2.42,0,0,1,307.25,109.71Z" style="fill:#263238"></path><path d="M313,94.82a7.25,7.25,0,0,1,.45,1.67,19,19,0,0,1,.31,4.16,19.35,19.35,0,0,1-.62,4.13,6.46,6.46,0,0,1-.58,1.63,13.91,13.91,0,0,1,.37-1.68,25.31,25.31,0,0,0,.52-4.09,24.32,24.32,0,0,0-.22-4.11A15.45,15.45,0,0,1,313,94.82Z" style="fill:#263238"></path><g style="opacity:0.30000000000000004"><path d="M262.61,109.74a8.84,8.84,0,0,1,4.11-7.45,6.23,6.23,0,0,1,1.06-6.15c.12,1.82,1.59,3.27,2.09,5a6.41,6.41,0,0,1-.69,4.74,15.64,15.64,0,0,1-3.12,3.77,5.61,5.61,0,0,1-1.48,1.09,2,2,0,0,1-1.78,0"></path></g><path d="M268.17,95.55a6.46,6.46,0,0,0,.29,6.64,1.81,1.81,0,0,1,.42.87c0,.55-.47,1-.91,1.3a22.36,22.36,0,0,0-5.59,6.16s-4.34,7.2.1,10.34,7.5-4.43,9.31-6.48a39.14,39.14,0,0,1,6-4.78c3.63-1.79,3.62-3.77,3.42-5.25a10.53,10.53,0,0,0-1.7-4.13,42,42,0,0,1-2.39-3.82" style="fill:#FFFFFF"></path><path d="M277.12,96.4a1.63,1.63,0,0,1,.15.25l.44.73c.38.63,1,1.51,1.78,2.66a10.49,10.49,0,0,1,1.87,4.62,4,4,0,0,1-.77,3,7.76,7.76,0,0,1-2.74,2.08h0c-1,.68-2.07,1.43-3.12,2.24a19.22,19.22,0,0,0-3,2.77c-.85,1.12-1.57,2.43-2.46,3.65a8.64,8.64,0,0,1-3.4,3.13,3.45,3.45,0,0,1-1.74.23c-.28-.06-.56-.17-.84-.25s-.5-.27-.75-.41a4.78,4.78,0,0,1-1.95-2.65,9.57,9.57,0,0,1,.76-6.1,17.55,17.55,0,0,1,3-4.72,22.65,22.65,0,0,1,3.56-3.32,2.75,2.75,0,0,0,.75-.73.82.82,0,0,0,0-.88,7.94,7.94,0,0,1-.9-1.66,6.61,6.61,0,0,1-.39-3,6.08,6.08,0,0,1,.49-1.86,3.53,3.53,0,0,1,.32-.59,7.13,7.13,0,0,0-.69,2.46,6.6,6.6,0,0,0,.43,2.93,8.52,8.52,0,0,0,.92,1.64,1,1,0,0,1,0,1.08,3.12,3.12,0,0,1-.79.79,22.45,22.45,0,0,0-3.5,3.32,17.1,17.1,0,0,0-2.93,4.66,9.31,9.31,0,0,0-.74,5.9,4.53,4.53,0,0,0,1.83,2.48,3.11,3.11,0,0,0,3,.4,8.48,8.48,0,0,0,3.27-3c.89-1.21,1.59-2.5,2.47-3.66a19.74,19.74,0,0,1,3.09-2.81c1.07-.81,2.12-1.55,3.15-2.23h0a7.77,7.77,0,0,0,2.67-2,3.77,3.77,0,0,0,.74-2.82,10.22,10.22,0,0,0-1.79-4.55c-.74-1.17-1.35-2.07-1.71-2.71A9.67,9.67,0,0,1,277.12,96.4Z" style="fill:#263238"></path><g style="opacity:0.4"><path d="M246.66,97.28l.33-.63a3.45,3.45,0,0,1,.47-1l-4.75-7.08a13.91,13.91,0,0,1,3.57-2.88,28,28,0,0,0,3.4,8.25,3.61,3.61,0,0,1,1-.18,4.06,4.06,0,0,1,2.87,7.09,4.14,4.14,0,0,1-6.87-3.56Z" style="fill:#fff"></path></g><path d="M249.88,94.24a4.11,4.11,0,0,0-2.24,1.7.31.31,0,0,0,.13.55l1.58.3a.31.31,0,0,0,.35-.21l.66-2A.31.31,0,0,0,249.88,94.24Z" style="fill:#263238"></path><path d="M249.46,96.65s0,.1.12.25a2.85,2.85,0,0,0,.47.6,2.81,2.81,0,0,0,.94.63,2.72,2.72,0,0,0,1.38.16,2.24,2.24,0,0,0,1.86-1.54,1.82,1.82,0,0,0,.09-.75,1,1,0,0,0,0-.28,2.66,2.66,0,0,1-.13,1,2.12,2.12,0,0,1-.6.9,2.3,2.3,0,0,1-1.19.54A2.47,2.47,0,0,1,251,98a2.78,2.78,0,0,1-.93-.57A4.62,4.62,0,0,1,249.46,96.65Z" style="fill:#263238"></path><path d="M247.22,100.38a.72.72,0,0,0,.24.1,3.87,3.87,0,0,0,.68.2,2,2,0,0,0,1.05-.05,1.74,1.74,0,0,0,.93-.9,2.34,2.34,0,0,0,.2-1.28,3.46,3.46,0,0,0-.32-1,4.09,4.09,0,0,0-.36-.61,1,1,0,0,0-.16-.2s.19.31.44.85a3.47,3.47,0,0,1,.27,1,2.13,2.13,0,0,1-.19,1.2,1.58,1.58,0,0,1-.85.84,2,2,0,0,1-1,.08C247.58,100.49,247.23,100.35,247.22,100.38Z" style="fill:#263238"></path><path d="M250.45,100.22a1,1,0,0,0,.43.1,1.89,1.89,0,0,0,1-.26,1.86,1.86,0,0,0,.71-.8c.11-.25.12-.42.1-.42s-.06.15-.19.38a1.93,1.93,0,0,1-1.65,1C250.62,100.23,250.46,100.2,250.45,100.22Z" style="fill:#263238"></path><path d="M248.78,85.35a7.66,7.66,0,0,1,2.84-2,2,2,0,0,0-.44,1.19,10.72,10.72,0,0,1,5.22-1l-.79,1L251.47,87Z" style="fill:#FFFFFF"></path><path d="M246.56,96.21a3.63,3.63,0,1,1-5-1.34A3.63,3.63,0,0,1,246.56,96.21Z" style="fill:#fff"></path><path d="M246.56,96.21a4.61,4.61,0,0,0-.55-.69,3.61,3.61,0,0,0-2.14-1,3.58,3.58,0,0,0-3.18,1.25,3.1,3.1,0,0,0-.54.87,3.27,3.27,0,0,0-.28,1,3.57,3.57,0,0,0,.45,2.17,3.52,3.52,0,0,0,1.65,1.48,3.25,3.25,0,0,0,1,.29,3.54,3.54,0,0,0,1,0,3.59,3.59,0,0,0,2.85-4.49,4.51,4.51,0,0,0-.32-.84s0,0,0,.05l.08.15a1.62,1.62,0,0,1,.12.26,2.12,2.12,0,0,1,.13.36,3.44,3.44,0,0,1,.15,1,3.6,3.6,0,0,1-.28,1.37,3.66,3.66,0,0,1-1,1.38,3.7,3.7,0,0,1-1.76.83,3.75,3.75,0,0,1-1.06,0,3.41,3.41,0,0,1-1.07-.29,3.62,3.62,0,0,1-1.71-1.53,3.72,3.72,0,0,1-.47-2.26,3.53,3.53,0,0,1,.29-1.07,3.59,3.59,0,0,1,.56-.9,3.65,3.65,0,0,1,3.3-1.26,3.54,3.54,0,0,1,1.32.45,3.28,3.28,0,0,1,.83.65,2.09,2.09,0,0,1,.25.3,1.38,1.38,0,0,1,.16.23l.09.15S246.57,96.21,246.56,96.21Z" style="fill:#263238"></path><path d="M241,100.25c-.92-1-1.23-2.16-.69-2.68s1.74-.18,2.66.78,1.24,2.16.69,2.69S241.94,101.21,241,100.25Z" style="fill:#FFFFFF"></path><path d="M242.93,97.6c.12.06,0,.5-.23,1s-.55.81-.67.75,0-.51.22-1S242.8,97.53,242.93,97.6Z" style="fill:#fff"></path><path d="M257.57,89.27a3.63,3.63,0,1,1-5-1.34A3.63,3.63,0,0,1,257.57,89.27Z" style="fill:#fff"></path><path d="M257.57,89.27a8.38,8.38,0,0,0-.56-.69,3.61,3.61,0,0,0-2.13-1,3.61,3.61,0,0,0-3.19,1.25,3.35,3.35,0,0,0-.54.87,3.27,3.27,0,0,0-.28,1A3.56,3.56,0,0,0,254,94.63a3.48,3.48,0,0,0,1,0,3.62,3.62,0,0,0,1.71-.8,3.51,3.51,0,0,0,1-1.33,3.62,3.62,0,0,0,.17-2.36,7.5,7.5,0,0,0-.32-.84l0,0,.08.15a1.06,1.06,0,0,1,.12.26,1.51,1.51,0,0,1,.13.36,3.2,3.2,0,0,1,.15,1,3.42,3.42,0,0,1-.28,1.37,3.66,3.66,0,0,1-1,1.38,3.7,3.7,0,0,1-1.76.83,3.13,3.13,0,0,1-1.06,0,3.22,3.22,0,0,1-1.07-.29,3.66,3.66,0,0,1-1.71-1.53,3.72,3.72,0,0,1-.47-2.26A3.53,3.53,0,0,1,251,89.6a3.75,3.75,0,0,1,2.17-2,3.69,3.69,0,0,1,1.69-.16,3.48,3.48,0,0,1,1.32.45,3.52,3.52,0,0,1,.83.65,2.09,2.09,0,0,1,.25.3,1.38,1.38,0,0,1,.16.23l.09.15Z" style="fill:#263238"></path><path d="M252.09,93.11c-.86-1-1.1-2.24-.52-2.73s1.74-.06,2.6,1,1.1,2.23.53,2.72S253,94.12,252.09,93.11Z" style="fill:#FFFFFF"></path><path d="M254.24,90.58c.11.08-.05.5-.36.94s-.66.73-.77.65,0-.5.36-.94S254.13,90.49,254.24,90.58Z" style="fill:#fff"></path><path d="M253,95.8s4-2.29,8.85-5.17,8.81-5.25,8.79-5.29-4,2.29-8.85,5.17S252.94,95.77,253,95.8Z" style="fill:#263238"></path><path d="M252.91,96.51s.06,0,.17-.06l.45-.19,1.67-.74c1.4-.64,3.32-1.55,5.41-2.63s3.95-2.1,5.29-2.87c.67-.38,1.2-.69,1.57-.92l.42-.26c.1-.06.15-.09.15-.1l-.16.08-.44.24-1.59.88c-1.34.75-3.21,1.76-5.3,2.84s-4,2-5.39,2.66l-1.65.77-.45.22Z" style="fill:#263238"></path><path d="M237.15,108.51s2.61-2.11,5.77-4.78,5.7-4.85,5.68-4.88-2.6,2.11-5.77,4.78S237.13,108.48,237.15,108.51Z" style="fill:#263238"></path><path d="M240.73,108.89s1.78-2,3.91-4.44,3.83-4.51,3.8-4.53-1.77,2-3.9,4.44S240.7,108.86,240.73,108.89Z" style="fill:#263238"></path><path d="M248.18,95.63s.36-.29.83-.6.9-.49.89-.52a2.29,2.29,0,0,0-1,.41A2.22,2.22,0,0,0,248.18,95.63Z" style="fill:#fff"></path><g style="opacity:0.30000000000000004"><path d="M314.81,101.19a1.67,1.67,0,0,0-1.15-1.36,70,70,0,0,1-1,7.3c1.18-.66,1.74-2.76,2-4.08A4.91,4.91,0,0,0,314.81,101.19Z"></path></g></g><g id="freepik--Character--inject-213"><path d="M156.32,260.72s6.64,28.35,6.92,46,.57,45.67-3.1,76.6-6.8,44.57-6.8,44.57l-13-2s-.4-18.69-1.71-34.26c-1.46-17.29,1.26-23.75-.41-42.83s-8.09-31.26-10.87-37c0,0-7.69-9.14-8.25-21.68s2.46-29.32,2.46-29.32Z" style="fill:#ffbf9d"></path><path d="M136.89,299.19c-.31.95-4.68,23-8.71,40.19s-6.7,33.14-10.49,46.58c-5.57,19.75-10.38,39.78-10.38,39.78l-14.07,1.32c.92-.65,0-29.66,4.9-52.64,4.89-22.82,6.82-51.74,6.2-60.31s-1.23-18.16.94-30.17,5.92-16.17,5.92-16.17L128,267Z" style="fill:#ffbf9d"></path><path d="M100.15,327.14l30.24,3.92.83-5.65,1.38,5.11,32.33-.42c-.67-17.77-1.45-34.89-3.54-44.33l-57.89-3.42s-1.59,13.27-2,20.14C100.94,311.18,100.15,327.14,100.15,327.14Z" style="fill:#FFFFFF"></path><path d="M132.2,330.28a11.8,11.8,0,0,1-.21-1.56,38.72,38.72,0,0,0-.76-4.19,40.81,40.81,0,0,0-5.64-12.79c-1.5-2.31-3-4.46-4.2-6.56a23.33,23.33,0,0,1-2.44-5.91,14,14,0,0,1-.41-4.29,8.5,8.5,0,0,1,.16-1.16,1.32,1.32,0,0,1,.11-.39,16.51,16.51,0,0,0,.5,5.75,23.43,23.43,0,0,0,2.5,5.76c1.18,2.06,2.71,4.19,4.22,6.52a38.65,38.65,0,0,1,5.56,13,28.91,28.91,0,0,1,.6,4.26c0,.51,0,.9,0,1.17A1.18,1.18,0,0,1,132.2,330.28Z" style="fill:#263238"></path><path d="M140.13,418.85c.15,1.6.37,8.35-.17,10.24a35.2,35.2,0,0,0-1.29,5.66c-.27,2-.3,4.15,1.14,5.42,2.06,1.81,5.05.87,7.68.66,6.89-.55,11.33,3.48,18,1.67a6.61,6.61,0,0,0,3.62-2.27,4.46,4.46,0,0,0,.65-4.32c-1-2.38-4-2.66-6.37-3.07-5-.84-6-2.24-9.19-6.43l1.66-12.27Z" style="fill:#ffbf9d"></path><path d="M93.9,415.57c.15,1.6-.39,11.63-.93,13.52a35.2,35.2,0,0,0-1.29,5.66c-.27,2-.3,4.15,1.14,5.42,2.06,1.81,5.05.87,7.68.66,6.89-.55,11.33,3.48,18,1.67a6.61,6.61,0,0,0,3.62-2.27,4.46,4.46,0,0,0,.65-4.32c-1-2.38-4-2.66-6.37-3.07-5-.84-6-2.24-9.19-6.43l1.66-12.27Z" style="fill:#ffbf9d"></path><path d="M115.24,147a11.48,11.48,0,0,1,8.85.91,6.83,6.83,0,0,1,11.79,1.8,5.78,5.78,0,0,1,5.81,9.85,7.43,7.43,0,0,1,3.1,11.3c2.23,1.08,2.61,4.09,2.28,6.54s-1,5.08.06,7.29c.85,1.71,2.6,2.77,3.8,4.26s1.62,4.05,0,5.06a5.16,5.16,0,1,1-1.87,10.14,6.35,6.35,0,0,1-.68,6.08,10.2,10.2,0,0,1-5.08,3.7,15.15,15.15,0,0,1-16.57-4.68l-18.28-56.5A11.48,11.48,0,0,1,115.24,147Z" style="fill:#263238"></path><path d="M106.55,162.64l-.25-3L124.43,155c5.61-.93,12.07,4.36,12.77,10,.77,6.28,1.47,14,1,18.73-.93,9.54-8.11,11.18-8.11,11.18l.52,9.39-20.89,1.52Z" style="fill:#ffbf9d"></path><path d="M135,174a1.21,1.21,0,0,1-1.1,1.29,1.16,1.16,0,0,1-1.31-1,1.22,1.22,0,0,1,1.09-1.3A1.17,1.17,0,0,1,135,174Z" style="fill:#263238"></path><path d="M135.44,169.15c-.14.17-1.1-.46-2.41-.37s-2.22.79-2.37.64.06-.36.46-.69A3.28,3.28,0,0,1,133,168a3.1,3.1,0,0,1,1.92.5C135.35,168.8,135.51,169.08,135.44,169.15Z" style="fill:#263238"></path><path d="M123.54,174.73a1.21,1.21,0,0,1-1.1,1.29,1.17,1.17,0,0,1-1.32-1,1.21,1.21,0,0,1,1.1-1.29A1.17,1.17,0,0,1,123.54,174.73Z" style="fill:#263238"></path><path d="M122.62,170.17c-.14.16-1.1-.46-2.4-.38s-2.22.79-2.37.64.06-.36.46-.69a3.39,3.39,0,0,1,1.88-.71,3.25,3.25,0,0,1,1.93.5C122.54,169.81,122.69,170.09,122.62,170.17Z" style="fill:#263238"></path><path d="M127.94,179.56a9.22,9.22,0,0,1,2.1-.51c.33-.05.64-.14.68-.37a1.58,1.58,0,0,0-.28-1c-.36-.79-.74-1.62-1.14-2.48a44.16,44.16,0,0,1-2.61-6.51,42.48,42.48,0,0,1,3.13,6.28l1.1,2.5a1.93,1.93,0,0,1,.25,1.3.84.84,0,0,1-.52.52,2.62,2.62,0,0,1-.56.11A8.72,8.72,0,0,1,127.94,179.56Z" style="fill:#263238"></path><path d="M130.1,195a25.09,25.09,0,0,1-13.19-2.62s3.59,6.43,13.32,5Z" style="fill:#ff9a6c"></path><path d="M122.32,165.66c-.13.36-1.43.19-3,.37s-2.78.61-3,.29c-.09-.15.12-.49.62-.83a4.9,4.9,0,0,1,2.21-.77,4.82,4.82,0,0,1,2.32.27C122.1,165.21,122.38,165.49,122.32,165.66Z" style="fill:#263238"></path><path d="M135.12,165.92c-.21.31-1.13.07-2.21.13s-2,.33-2.21,0,0-.45.4-.76a3.21,3.21,0,0,1,3.56-.14C135.07,165.47,135.21,165.77,135.12,165.92Z" style="fill:#263238"></path><path d="M127,182.73a2.28,2.28,0,0,0-2-1,2.12,2.12,0,0,0-1.49.7,1.35,1.35,0,0,0-.18,1.52,1.55,1.55,0,0,0,1.66.51,4.86,4.86,0,0,0,1.68-.89,1.69,1.69,0,0,0,.39-.36.44.44,0,0,0,0-.48" style="fill:#ff9a6c"></path><path d="M123.88,180.37c.21,0,.14,1.38,1.28,2.43s2.63,1,2.63,1.16-.34.25-1,.24a3.44,3.44,0,0,1-2.19-.89,3,3,0,0,1-1-2C123.62,180.69,123.79,180.35,123.88,180.37Z" style="fill:#263238"></path><path d="M101.63,211.69l-.91-1.61s-5.79,7.18-6.42,11.72c-.52,3.76-3.34,24.12-4.78,33.71a13.71,13.71,0,0,0,3,11c2.5,2.9,6.27,4.94,11.37,1.51,3.5-2.36,12.47-12,12.47-12Z" style="fill:#ffbf9d"></path><path d="M111.24,257l-25.09-4s5-27.22,6.7-30.53a92.84,92.84,0,0,1,4.84-8.07L110,240.77Z" style="fill:#e0e0e0"></path><path d="M165,297.21s-1-10.06-3-21.39c-2.39-13.81-10.29-37.63-10.29-37.63l-42.49,19.57.77,8.77s-9,17-9.78,30.86C119.5,303.88,142.39,302.73,165,297.21Z" style="fill:#e0e0e0"></path><path d="M97.86,208.33l35.61-5.69s9.88,16.05,13.58,32.91,5.15,28.91,5.15,28.91l-28.92,4.39c-3.43.39-8.09,4.5-11.51,4l-3.42-.48,2.81-10.71A203.86,203.86,0,0,1,101,234C96.58,217.41,97.86,208.33,97.86,208.33Z" style="fill:#e0e0e0"></path><path d="M182.44,213.84c-.11.31-13.95,19.26-13.95,19.26s-12.92-13.41-16.85-18.34l-6.72,21.58s13.31,13.3,19.21,15.51,10.48-1.17,13-3.59,13.22-27.1,13.22-27.1Z" style="fill:#ffbf9d"></path><path d="M130.12,203.17a11.81,11.81,0,0,1,11.21.19C147,206.71,169,229.21,169,229.21L155.11,247l-21.42-20.75-1.35-12.48Z" style="fill:#e0e0e0"></path><path d="M168.83,241.8a40.26,40.26,0,0,0-.13-8.31,21.56,21.56,0,0,0-.15,4.16A20.36,20.36,0,0,0,168.83,241.8Z" style="fill:#ff9a6c"></path><g style="opacity:0.30000000000000004"><path d="M148.44,240.49c-3.67-.5-7.19-1.24-9.62-3.81A14,14,0,0,1,135,227.3C139.87,231.73,144.21,236.5,148.44,240.49Z"></path></g><path d="M169,229.21s-.06.14-.22.37l-.74,1-2.8,3.79-9.62,12.69-.18.24-.22-.21-3.09-2.94L138.43,231l-4.11-4-1.1-1.12c-.24-.25-.37-.4-.35-.41a2.64,2.64,0,0,1,.43.35l1.17,1,4.22,3.93,13.81,13.09,3.08,2.95-.4,0L165,234.21l2.93-3.69.81-1A1.87,1.87,0,0,1,169,229.21Z" style="fill:#263238"></path><path d="M109.5,265.77a12.05,12.05,0,0,1-.13-2.08c0-1.43-.05-3.3-.09-5.5v.08c-1-2.53-2.1-5.5-3.32-8.7-1.65-4.37-3.11-8.33-4.15-11.21l-1.2-3.41a6.92,6.92,0,0,1-.37-1.28,7.18,7.18,0,0,1,.56,1.21l1.36,3.35c1.12,2.85,2.64,6.79,4.28,11.16l3.25,8.72v.08c0,2.21-.06,4.07-.09,5.5A12.92,12.92,0,0,1,109.5,265.77Z" style="fill:#263238"></path><path d="M198.72,199.16s0-2.74-2.61-1.12-11.44,10.53-14.18,15.48l-4.87,7.87,9.74,7.76,2.78-6.79s7.64-4.46,8.68-5.18,2.74-4.49-.83-3.88c0,0,1.42-3.74-2.15-3.58,0,0,1-2.82-2.47-3.37Z" style="fill:#ffbf9d"></path><g style="opacity:0.30000000000000004"><path d="M99.15,209.22l22.51-4.69c.81,1.87-.64,7-2.62,7.56a7.2,7.2,0,0,1-5.71,10.74,6.63,6.63,0,0,0-1.78.22c-1.23.44-1.82,1.8-2.56,2.88a6.73,6.73,0,0,1-4.15,2.88,4.94,4.94,0,0,1-4.68-1.56c-1.09-1.32-1.27-3.16-1.35-4.87A86.31,86.31,0,0,1,99.15,209.22Z"></path></g><path d="M107.2,138.79c-2.15-2.63-5.59-2.56-7.76-1.79a6.18,6.18,0,0,0-4,5.16,6.47,6.47,0,0,0-5.68,11.59A5.34,5.34,0,0,0,99.22,158l9.23-10.48A8.09,8.09,0,0,0,107.2,138.79Z" style="fill:#263238"></path><path d="M110.33,147.41a3,3,0,0,0-2.49-.6,9.34,9.34,0,0,0-2.45,1,3,3,0,0,0-1,.72,1,1,0,0,0-.16,1.15,2.84,2.84,0,1,0-.77,5.26l-1.21.39a10.89,10.89,0,0,0,7-2.68A5.36,5.36,0,0,0,111,150.2,2.77,2.77,0,0,0,110.33,147.41Z" style="fill:#FFFFFF"></path><path d="M136.79,160.87a1,1,0,0,0,.31.13,2.82,2.82,0,0,0,1,.07,3.93,3.93,0,0,0,2.93-2,3.79,3.79,0,0,0,.41-2.5A5.13,5.13,0,0,0,140.1,154a5.52,5.52,0,0,0-2.78-1.59,7.41,7.41,0,0,0-3.44,0,9.08,9.08,0,0,0-1.88.67l.29.12a7.92,7.92,0,0,0-4-4.19,7.68,7.68,0,0,0-7.56.79,4.82,4.82,0,0,0-.65.54c-.13.14-.2.22-.19.23s.32-.25.93-.64a7.8,7.8,0,0,1,2.85-1.11,7.24,7.24,0,0,1,4.45.55,7.62,7.62,0,0,1,3.82,4l.09.22.21-.1a8.63,8.63,0,0,1,1.79-.64,7.1,7.1,0,0,1,3.24,0,5.24,5.24,0,0,1,2.59,1.45,4.87,4.87,0,0,1,1.26,2.37,3.5,3.5,0,0,1-.32,2.29,3.8,3.8,0,0,1-2.68,2A4.75,4.75,0,0,1,136.79,160.87Z" style="fill:#455a64"></path><path d="M91,174.43s-.17-.4-.37-1.14a7.69,7.69,0,0,1-.17-3.24,7,7,0,0,1,2.27-4.18,7.32,7.32,0,0,1,5.54-1.8l.33,0-.09-.31a8.87,8.87,0,0,1,1.77-8.24,8.68,8.68,0,0,1,4.66-2.79,9.34,9.34,0,0,1,3.72-.11c.88.16,1.34.34,1.36.3s-.11-.07-.33-.16a6.24,6.24,0,0,0-1-.31,8.92,8.92,0,0,0-3.83,0,8.83,8.83,0,0,0-4.9,2.83,9.32,9.32,0,0,0-2.24,6.53,8.78,8.78,0,0,0,.36,2.09l.23-.28a7.68,7.68,0,0,0-5.85,2,7.16,7.16,0,0,0-2.3,4.43,7.39,7.39,0,0,0,.3,3.33,5.55,5.55,0,0,0,.36.83C90.91,174.35,91,174.44,91,174.43Z" style="fill:#455a64"></path><path d="M137.16,158.21a15.92,15.92,0,0,0-8.63-5.7l-15.31,1.93-1.31,0c-.28-1-1.91-1.47-1.91-1.47-1.44-1.11-6.42-1.17-9.9,2.46-1.25,1.31-2.14,4.61-2.17,6.42,0,.69.72,1.63.15,2A15.81,15.81,0,0,1,96,164c-3.89.86-6.33,4.31-5.62,9.47a2.59,2.59,0,0,1,.08.78,2.14,2.14,0,0,1-.68,1,6.78,6.78,0,0,0-1.07,7.53,7.91,7.91,0,0,1,1,2.25c.24,1.47-.84,2.79-1.67,4-2.5,3.71-3,9.1-.11,12.48.42.48.91.94,1.3,1.44a18.32,18.32,0,0,0-.9,5.91c.12,4.37,2.79,9,7,9.91a4.69,4.69,0,0,0,1.91,5.92,6.21,6.21,0,0,0,6.49-.43,9.38,9.38,0,0,0,3.63-5.64,5.91,5.91,0,0,0,8.15-7.33,3.8,3.8,0,0,0,4.51-2.05,6.26,6.26,0,0,0-.21-5.26,17.39,17.39,0,0,0-3-4.15,6.28,6.28,0,0,0,1-4.92c-.42-2.19-2.17-3.34-2.69-5.16-.23-.79.43-4.83-.46-6.36-.7-1.22-1.92-2.08-2.52-3.35-.87-1.85-.2-4,.18-6a20,20,0,0,0-1.26-11.37,10.56,10.56,0,0,1-.1-1.14c0-2.32,2.91-1.08,5.11-.34a5.46,5.46,0,0,0,1.65.3,5.88,5.88,0,0,0,4.73-2.24,8.45,8.45,0,0,0,8.34,2.28,23.31,23.31,0,0,0,4,4.61,7.74,7.74,0,0,0,5.61,1.92A15.93,15.93,0,0,0,137.16,158.21Z" style="fill:#263238"></path></g></svg>
