<svg xmlns="http://www.w3.org/2000/svg" viewBox="0 0 500 500"><g id="freepik--background-simple--inject-165"><path d="M414.56,131l-13.23-21.52C377.32,85.1,340.55,74,307.05,81.1s-62.65,32.09-74.73,64.13c-7.11,18.84-9.09,40.53-22.58,55.49C192.2,220.18,162.4,220.79,136.21,220s-56-.12-73.47,19.42c-10.94,12.24-14.41,29.64-13.53,46,2.33,43.39,32.95,82.18,71.89,101.47s84.79,21,127.4,12.53c59.7-11.89,116.48-44.52,150.6-94.93S441.86,185.43,414.56,131Z" style="fill:#ebebeb"></path></g><g id="freepik--Floor--inject-165"><path d="M465.23,452.21c0,.14-96.37.26-215.22.26s-215.24-.12-215.24-.26S131.12,452,250,452,465.23,452.07,465.23,452.21Z" style="fill:#263238"></path></g><g id="freepik--Plants--inject-165"><path d="M419.6,433.37c-.68-2.69,1.1-5.38,3.09-7.32s4.36-3.67,5.4-6.25c1.69-4.16-.52-9.58,2.34-13.05,1.68-2,4.69-2.71,6.18-4.9A11,11,0,0,0,438,398a39.79,39.79,0,0,1,10-18.45,34.46,34.46,0,0,1-4,17.81c-1.16,2.19-2.59,4.31-3,6.76-.64,4,1.55,8.07.55,12-1.14,4.46-6.17,7.41-6.43,12-.22,3.88,3.14,7.31,2.87,11.18a10.39,10.39,0,0,1-1.76,4.59c-3,5-7.45,8.39-14.13,8.24l-8.19.24Z" style="fill:#FFFFFF"></path><path d="M412.25,452.48a6.44,6.44,0,0,1-2.25-.06,13.79,13.79,0,0,1-2.65-.68,11.44,11.44,0,0,1-3.28-1.82,4.59,4.59,0,0,1-1.34-1.81,8.49,8.49,0,0,1-.37-2.45,24.23,24.23,0,0,0-.18-2.64,7.25,7.25,0,0,0-1-2.64c-1-1.7-2.55-3.32-3.05-5.62s-.14-4.71.26-7.17.78-5.13-.15-7.69-2.64-4.89-3.52-7.78-.45-6.05-.62-9.14a12.22,12.22,0,0,0-1-4.55c-.65-1.45-1.56-2.82-2.27-4.35-1.44-3.09-1.67-6.59-2.05-10-.18-1.72-.37-3.47-.56-5.23a25.18,25.18,0,0,0-.88-5.24,43.52,43.52,0,0,0-1.93-5.07,16.61,16.61,0,0,1-.93-2.65,24.8,24.8,0,0,1-.25-2.82,33.53,33.53,0,0,1,.25-5.66c.23-1.89.58-3.76.8-5.65,0-.11,0-.23,0-.33l0-.37.34.16a12.7,12.7,0,0,1,4.38,3.75,20.12,20.12,0,0,1,2.68,5c1.35,3.52,1.82,7.21,2.49,10.73a29.18,29.18,0,0,0,3.3,9.92c.89,1.46,2,2.8,2.91,4.22a11.6,11.6,0,0,1,2,4.68c.47,3.46-1.46,6.49-1.08,9.56a10.71,10.71,0,0,0,1.47,4.26c.74,1.31,1.6,2.53,2.43,3.75a23.46,23.46,0,0,1,2.17,3.79,12,12,0,0,1,1,4.11c.19,2.76-.22,5.37,0,7.85a18.06,18.06,0,0,0,2,6.73c1,2,2.07,3.85,3,5.62.46.88.88,1.75,1.23,2.61a12.89,12.89,0,0,1,.7,2.6,16.29,16.29,0,0,1,0,4.67,11.8,11.8,0,0,1-2.38,5.94,5.86,5.86,0,0,1-.67.71,3,3,0,0,1-.54.46c-.3.22-.47.32-.47.32a9.67,9.67,0,0,0,1.6-1.56,11.82,11.82,0,0,0,2.25-5.9,16.26,16.26,0,0,0-.08-4.6,11.42,11.42,0,0,0-.71-2.53,27.32,27.32,0,0,0-1.23-2.58c-.92-1.76-2-3.58-3-5.61a18.45,18.45,0,0,1-2.05-6.86c-.2-2.52.19-5.15,0-7.84a11.78,11.78,0,0,0-1-4,23,23,0,0,0-2.16-3.72c-.82-1.21-1.69-2.43-2.45-3.77a11.1,11.1,0,0,1-1.54-4.43c-.37-3.27,1.54-6.32,1.06-9.54A11.08,11.08,0,0,0,401,385.1c-.93-1.4-2-2.74-2.93-4.24a29.65,29.65,0,0,1-3.38-10.08c-.68-3.54-1.15-7.19-2.47-10.64a19.45,19.45,0,0,0-2.61-4.88,12.1,12.1,0,0,0-4.2-3.58l.38-.21c0,.1,0,.22,0,.33-.22,1.91-.57,3.79-.8,5.65a32.68,32.68,0,0,0-.25,5.58,26.64,26.64,0,0,0,.24,2.73,17,17,0,0,0,.9,2.56,46.66,46.66,0,0,1,1.95,5.13,26.06,26.06,0,0,1,.89,5.32c.18,1.77.37,3.51.55,5.24.37,3.44.61,6.88,2,9.86.68,1.49,1.59,2.87,2.26,4.37a12.38,12.38,0,0,1,1.07,4.71c.16,3.16-.26,6.25.57,9.05s2.61,5.12,3.5,7.77.53,5.43.13,7.88-.82,4.85-.31,7,2,3.8,3,5.55a7.58,7.58,0,0,1,1,2.74,23,23,0,0,1,.16,2.68A8.14,8.14,0,0,0,403,448a4.34,4.34,0,0,0,1.26,1.73,11.2,11.2,0,0,0,3.19,1.83,14.56,14.56,0,0,0,2.62.73,12.12,12.12,0,0,0,1.66.17C412.06,452.47,412.25,452.48,412.25,452.48Z" style="fill:#263238"></path><path d="M386.94,355.93a.76.76,0,0,1,.08.25c.05.19.11.43.18.73.16.65.34,1.62.64,2.84s1.05,2.59,1.68,4.28a60.4,60.4,0,0,1,1.91,5.82c.61,2.19,1.15,4.61,1.72,7.21a30.32,30.32,0,0,0,2.57,8c.66,1.33,1.41,2.68,2,4.16a18.91,18.91,0,0,1,1.15,4.7,95.72,95.72,0,0,0,1.71,9.91c1.6,6.72,3.13,13.11,4.52,18.94s2.71,11,3.79,15.44,1.91,7.92,2.51,10.42l.66,2.84c.06.3.12.55.16.75a.79.79,0,0,1,0,.25l-.08-.24c-.06-.2-.13-.44-.21-.73-.19-.69-.44-1.63-.76-2.82l-2.67-10.38c-1.11-4.4-2.43-9.62-3.9-15.42L400.07,404a94.25,94.25,0,0,1-1.71-9.95,18.66,18.66,0,0,0-1.1-4.59c-.58-1.44-1.31-2.78-2-4.13a30.21,30.21,0,0,1-2.57-8.13c-.55-2.6-1.06-5-1.65-7.2s-1.21-4.13-1.83-5.81-1.3-3.08-1.59-4.34-.43-2.21-.56-2.87l-.12-.74A1.68,1.68,0,0,1,386.94,355.93Z" style="fill:#263238"></path><path d="M410.81,452.5c-5.33-3.21-6.81-12.86-4.54-18.65s6.19-11.08,6.83-17.26c.49-4.76-1-9.65.09-14.29,1.53-6.27,7.69-11.1,7.65-17.55,0-3.62-2.06-7-1.87-10.65.23-4.43,3.65-7.93,5.78-11.83,3.26-6,3.51-13,4.66-19.73s3.73-13.86,9.69-17.13c.85,5.7,2.33,9.61,1.81,17.32-.18,2.77-3.43,8-3.9,14.12-.29,3.63-.49,7.26-.73,10.89s-.48,7.13-1.77,10.42c-1,2.53-2.56,4.82-3.29,7.44-1.39,4.91.36,10.25-.76,15.23-.95,4.21-3.89,7.83-4.51,12.11-.88,6,3,12.29,1,18-1,2.85-3.37,5.12-4.05,8.06-.53,2.27,0,4.69-.46,7-.77,3.69-7.83,6.52-11.59,6.27" style="fill:#455a64"></path><path d="M437.6,331.06a1.29,1.29,0,0,1,0,.32l-.12.93c-.13.83-.27,2-.56,3.59s-1.13,3.33-1.79,5.46-1.38,4.57-2,7.31-1.15,5.77-1.7,9a38.17,38.17,0,0,1-2.8,10.21c-.76,1.71-1.61,3.41-2.25,5.23a23.74,23.74,0,0,0-1.17,5.77,114.33,114.33,0,0,1-1.63,12.45c-1.69,8.42-3.29,16.45-4.75,23.75s-2.93,13.83-4.09,19.35-2.13,9.92-2.8,13c-.34,1.51-.6,2.7-.79,3.54-.09.38-.16.69-.22.92a1.31,1.31,0,0,1-.09.31,1.11,1.11,0,0,1,0-.32c0-.24.1-.54.17-.93.16-.85.39-2,.69-3.56.63-3.12,1.53-7.57,2.63-13.07s2.49-12.08,4-19.37,3-15.32,4.71-23.75a117.61,117.61,0,0,0,1.64-12.4,23.9,23.9,0,0,1,1.2-5.88c.66-1.86,1.53-3.57,2.29-5.26A38,38,0,0,0,431,357.63c.57-3.26,1.12-6.3,1.77-9.05a74.79,74.79,0,0,1,2.09-7.31c.69-2.14,1.53-3.89,1.86-5.41s.49-2.75.65-3.56l.18-.93A1.11,1.11,0,0,1,437.6,331.06Z" style="fill:#263238"></path></g><g id="freepik--Eggs--inject-165"><path d="M388.09,428.6c4.78,9.29-1.91,21.55-10.24,23.58s-20-5.78-19.94-16.23c0-14.1,5.79-20.89,10.61-22.06C374.72,412.38,383.31,419.29,388.09,428.6Z" style="fill:#FFFFFF"></path><path d="M388.09,428.6c4.78,9.29-1.91,21.55-10.24,23.58s-20-5.78-19.94-16.23c0-14.1,5.79-20.89,10.61-22.06C374.72,412.38,383.31,419.29,388.09,428.6Z" style="opacity:0.5"></path><path d="M410.35,428.43c2.82,11.75-8.05,23.71-18,23.71s-20.83-12-18-23.71c3.88-15.85,12.23-21.89,18-21.89C399.76,406.54,407.53,416.66,410.35,428.43Z" style="fill:#FFFFFF"></path><path d="M410.61,429.32a7.17,7.17,0,0,1-1.32.68,34.54,34.54,0,0,1-3.79,1.49,44.65,44.65,0,0,1-5.83,1.52,46.34,46.34,0,0,1-14.74.42,43.85,43.85,0,0,1-5.91-1.19,32.18,32.18,0,0,1-3.86-1.27,6.38,6.38,0,0,1-1.36-.61c0-.1,2,.67,5.32,1.47a52.1,52.1,0,0,0,5.88,1,54.68,54.68,0,0,0,7.3.33,56.32,56.32,0,0,0,7.27-.74,50.47,50.47,0,0,0,5.8-1.38C408.63,430.09,410.56,429.21,410.61,429.32Z" style="fill:#fafafa"></path><path d="M407.67,421.73a4.37,4.37,0,0,1-.91,1,15.53,15.53,0,0,1-3,2.12,23.36,23.36,0,0,1-11.68,2.69,43.22,43.22,0,0,1-11.83-2.13c-1.47-.45-2.64-.86-3.45-1.16a5.69,5.69,0,0,1-1.23-.53,5.69,5.69,0,0,1,1.31.3l3.49,1a48.43,48.43,0,0,0,11.72,1.93,24.38,24.38,0,0,0,11.47-2.46A29.42,29.42,0,0,0,407.67,421.73Z" style="fill:#263238"></path><path d="M405.15,415.78a4.22,4.22,0,0,1-.89.57,20.32,20.32,0,0,1-2.6,1.21,27.93,27.93,0,0,1-18.63.58,20.34,20.34,0,0,1-2.67-1.05,3.69,3.69,0,0,1-.92-.52c.05-.1,1.41.52,3.71,1.16a30.95,30.95,0,0,0,18.37-.57C403.78,416.38,405.1,415.68,405.15,415.78Z" style="fill:#fafafa"></path><path d="M400.35,411a8.18,8.18,0,0,1-2.42.78,26.77,26.77,0,0,1-6.1.61,25.91,25.91,0,0,1-6.08-.79,8,8,0,0,1-2.39-.84c0-.19,3.75,1,8.48,1S400.3,410.8,400.35,411Z" style="fill:#263238"></path><path d="M408.43,439a5,5,0,0,1-1.2.51,32.9,32.9,0,0,1-3.4,1.06,48.84,48.84,0,0,1-23.3.34,33,33,0,0,1-3.43-1,5.37,5.37,0,0,1-1.22-.48c0-.1,1.81.44,4.74,1a55.34,55.34,0,0,0,23.11-.34C406.64,439.44,408.4,438.85,408.43,439Z" style="fill:#263238"></path><path d="M403.24,447.24a2.76,2.76,0,0,1-.83.39,20.32,20.32,0,0,1-2.39.74,30.58,30.58,0,0,1-16.29-.39,19.76,19.76,0,0,1-2.35-.85c-.54-.24-.83-.39-.81-.43s1.25.36,3.27.87a35.64,35.64,0,0,0,16.09.38C402,447.54,403.2,447.15,403.24,447.24Z" style="fill:#fafafa"></path><path d="M347.73,434.44c3.6,7-1.45,16.26-7.73,17.8S325,447.87,325,440c0-10.64,4.36-15.76,8-16.64C337.64,422.21,344.12,427.42,347.73,434.44Z" style="fill:#FFFFFF"></path><path d="M348.94,441.58a2.27,2.27,0,0,1-.45.4,6.76,6.76,0,0,1-1.52.81,7.23,7.23,0,0,1-9.21-3.65,7.23,7.23,0,0,1-.56-5,2.78,2.78,0,0,1,2-2.07,1.89,1.89,0,0,1,1.55.34,2.38,2.38,0,0,1,.85,1.34,3.83,3.83,0,0,1-.77,3,6.41,6.41,0,0,1-2.34,2,6.25,6.25,0,0,1-5.94,0,6.44,6.44,0,0,1-3.3-4.48,3.64,3.64,0,0,1,.48-2.66,2.53,2.53,0,0,1,2.32-1.1,2,2,0,0,1,1.7,1.68,2.76,2.76,0,0,1-.45,2.14,5.19,5.19,0,0,1-3,2,5.92,5.92,0,0,1-2.74,0,5.1,5.1,0,0,1-1.61-.63,1.72,1.72,0,0,1-.47-.37,7.69,7.69,0,0,0,2.12.77,6,6,0,0,0,2.61-.14,4.8,4.8,0,0,0,2.74-1.94,2.34,2.34,0,0,0,.35-1.81A1.56,1.56,0,0,0,332,431a2,2,0,0,0-1.82.9,3.18,3.18,0,0,0-.37,2.27,5.93,5.93,0,0,0,3,4,5.7,5.7,0,0,0,5.38,0,5.75,5.75,0,0,0,2.12-1.85,3.24,3.24,0,0,0,.69-2.48,1.48,1.48,0,0,0-1.7-1.25,2.24,2.24,0,0,0-1.55,1.66,6.79,6.79,0,0,0,.48,4.64A7.13,7.13,0,0,0,341,442a7.35,7.35,0,0,0,5.92.56A11.8,11.8,0,0,0,348.94,441.58Z" style="fill:#fafafa"></path><path d="M342.16,451.64a10.79,10.79,0,0,0-2.66-3.55,8.16,8.16,0,0,0-4.34-1.84,3,3,0,0,0-2.45.7,1.41,1.41,0,0,0,.11,2.23,1.59,1.59,0,0,0,1.28.08,1.72,1.72,0,0,0,.9-.9,2.53,2.53,0,0,0-.3-2.49,4.87,4.87,0,0,0-4-2,5.15,5.15,0,0,0-3,1c-.61.47-.87.82-.91.79s.17-.43.76-1a5.13,5.13,0,0,1,3.12-1.29,5.25,5.25,0,0,1,4.51,2.12,3.09,3.09,0,0,1,.37,3,2.24,2.24,0,0,1-1.22,1.22,2.16,2.16,0,0,1-1.79-.11,1.74,1.74,0,0,1-.92-1.57,2.39,2.39,0,0,1,.66-1.59,3.51,3.51,0,0,1,3-.86,8.42,8.42,0,0,1,4.56,2.07,8.16,8.16,0,0,1,2,2.7A3.09,3.09,0,0,1,342.16,451.64Z" style="fill:#fafafa"></path><path d="M339.2,424.86c.05.05-.31.53-1.1,1a6.48,6.48,0,0,1-7-.08c-.78-.54-1.12-1-1.07-1.07s.5.29,1.29.7a7.23,7.23,0,0,0,6.61.08C338.69,425.14,339.13,424.79,339.2,424.86Z" style="fill:#fafafa"></path><g style="opacity:0.2"><path d="M336.82,452.1a8,8,0,0,1-2.69-1.4,2.72,2.72,0,0,1-.91-2.74,3.16,3.16,0,0,1,2-1.75,25.31,25.31,0,0,0,2.57-.92,6.84,6.84,0,0,0,3.06-4.25c.52-1.72.69-3.53,1.2-5.25a3.1,3.1,0,0,1,1.72-2.26c1.28-.39,2.5.8,3.14,2a11.52,11.52,0,0,1-.61,11.71c-2.33,3.39-5.37,5.41-9.45,4.88"></path></g></g><g id="freepik--Character--inject-165"><path d="M142.34,435l11.94-4.11-7.55-22.41-17.53,5.83.38,1.42c1.74,6.3,9.3,31.91,11.94,35.62C144.47,455.51,142.34,435,142.34,435Z" style="fill:#FFFFFF"></path><g style="opacity:0.4"><path d="M132.11,422.39a8.2,8.2,0,0,0,3.82-4.47,8,8,0,0,0-.14-5.79l-6.26,2.11Z"></path></g><path d="M143.05,445.14s.33,7.33-1.05,6.86S132,426,129.2,414.33l.51-.14,9.79,29.94S142.56,443.86,143.05,445.14Z" style="opacity:0.4"></path><path d="M129.61,413.84a2,2,0,0,0,.09.4l.3,1.12,1.2,4.14c1,3.48,2.52,8.27,4.29,13.53s3.46,10,4.74,13.38c.6,1.59,1.12,2.93,1.54,4l.43,1.08.17.38a2.16,2.16,0,0,0-.11-.4c-.12-.33-.25-.69-.39-1.1-.39-1.1-.88-2.45-1.45-4.05-1.23-3.42-2.9-8.15-4.66-13.4s-3.29-10-4.37-13.5c-.5-1.62-.93-3-1.28-4.11l-.36-1.11A1.71,1.71,0,0,0,129.61,413.84Z" style="fill:#263238"></path><path d="M139.15,444.24a10.37,10.37,0,0,1,2.2.11,9.7,9.7,0,0,1,2,.87,3.83,3.83,0,0,0-4.23-1Z" style="fill:#263238"></path><path d="M140.28,436.5c0,.08.47.26,1.1.42a2.65,2.65,0,0,0,1.16.14c0-.08-.47-.27-1.09-.42S140.3,436.42,140.28,436.5Z" style="fill:#263238"></path><path d="M140.63,434.36c0,.07.32.35.79.62s.9.43.94.36-.32-.34-.8-.61S140.67,434.29,140.63,434.36Z" style="fill:#263238"></path><path d="M142.36,432.5a2.67,2.67,0,0,0,.24,1.22,2.78,2.78,0,0,0,.52,1.13,2.63,2.63,0,0,0-.24-1.21C142.67,433,142.44,432.48,142.36,432.5Z" style="fill:#263238"></path><path d="M143.72,431.61a2.35,2.35,0,0,0,.06,1.43,2.49,2.49,0,0,0,.63,1.29,7.18,7.18,0,0,0-.35-1.36A7.59,7.59,0,0,0,143.72,431.61Z" style="fill:#263238"></path><path d="M142.49,436.6A4.39,4.39,0,0,0,143,438a8.29,8.29,0,0,0,.85,1.42,4.12,4.12,0,0,0,.66.76.8.8,0,0,0,.56.2.61.61,0,0,0,.51-.41,2.79,2.79,0,0,0-1.88-3,2.85,2.85,0,0,0-1.11-.14c-.27,0-.41.07-.41.09a4.53,4.53,0,0,1,1.45.24,2.74,2.74,0,0,1,1.22,1,2.36,2.36,0,0,1,.46,1.75c-.09.29-.39.29-.63.09a5.17,5.17,0,0,1-.62-.7,10.52,10.52,0,0,1-.88-1.35C142.72,437.14,142.54,436.59,142.49,436.6Z" style="fill:#263238"></path><path d="M142.55,437a1.42,1.42,0,0,0,1-.17,2.42,2.42,0,0,0,.92-.75,1.48,1.48,0,0,0,.33-1.44.59.59,0,0,0-.81-.22,1.61,1.61,0,0,0-.56.46,4.56,4.56,0,0,0-.65,1,2.34,2.34,0,0,0-.3,1s.16-.37.48-.92a5.25,5.25,0,0,1,.66-.9c.24-.3.74-.62.93-.28s-.08.84-.29,1.16a2.53,2.53,0,0,1-.8.72A5.3,5.3,0,0,1,142.55,437Z" style="fill:#263238"></path><path d="M135.9,412.23c-.05,0,.27.62.49,1.68a7.39,7.39,0,0,1-2.7,7.44c-.85.67-1.48.92-1.46,1a1.44,1.44,0,0,0,.45-.16,6,6,0,0,0,1.13-.65,7.17,7.17,0,0,0,2.78-7.65,7,7,0,0,0-.44-1.22A1.47,1.47,0,0,0,135.9,412.23Z" style="fill:#263238"></path><path d="M146,411.42a39.73,39.73,0,0,0-4.67,1.35,39.57,39.57,0,0,0-4.59,1.63,41.1,41.1,0,0,0,4.67-1.36A43.28,43.28,0,0,0,146,411.42Z" style="fill:#263238"></path><path d="M135.25,424.48a13.68,13.68,0,0,0,.78,3.38,13.29,13.29,0,0,0,1.36,3.19c.08,0-.51-1.47-1.09-3.28S135.33,424.46,135.25,424.48Z" style="fill:#263238"></path><path d="M133.78,420.08c-.08,0-.27.23-.56.49s-.55.44-.52.52.39,0,.72-.31S133.85,420.11,133.78,420.08Z" style="fill:#263238"></path><path d="M135.28,417.73c-.07,0-.25.19-.41.5s-.23.59-.16.63.26-.19.42-.5S135.35,417.77,135.28,417.73Z" style="fill:#263238"></path><path d="M135.43,415.05c-.07,0,0,.34,0,.7s-.1.67,0,.71.32-.25.32-.7S135.49,415,135.43,415.05Z" style="fill:#263238"></path><path d="M135.3,413.21c-.08,0-.15.17-.16.38s.05.38.13.38.15-.16.16-.37S135.38,413.22,135.3,413.21Z" style="fill:#263238"></path><path d="M280.85,444.4l2.29-11.11-20.8-4.43-3.52,16.23,1.27.36c5.67,1.54,28.94,7.42,33,7.08C297.67,452.14,280.85,444.4,280.85,444.4Z" style="fill:#FFFFFF"></path><g style="opacity:0.4"><path d="M266.4,446.53a7.41,7.41,0,0,0-1.71-5,7.2,7.2,0,0,0-4.54-2.54l-1.24,5.81Z"></path></g><path d="M289,448.49s5.81,3.1,4.83,4-24.73-4.21-35-7.36l.13-.46,27.64,6.15S287.78,448.28,289,448.49Z" style="opacity:0.4"></path><path d="M258.63,444.55l.35.12,1,.28,3.75,1c3.16.79,7.55,1.83,12.43,2.88s9.3,1.89,12.52,2.46l3.81.65,1,.16a1.69,1.69,0,0,0,.37,0l-.36-.09-1-.2-3.8-.73c-3.2-.62-7.63-1.49-12.5-2.54s-9.26-2.05-12.44-2.8l-3.76-.89-1-.23A1.38,1.38,0,0,0,258.63,444.55Z" style="fill:#263238"></path><path d="M286.52,451.1a8.4,8.4,0,0,1,1.09-1.66,9.15,9.15,0,0,1,1.6-1.17,2.91,2.91,0,0,0-1.79,1A2.86,2.86,0,0,0,286.52,451.1Z" style="fill:#263238"></path><path d="M281.05,446.68c.05.05.42-.25.82-.66s.7-.79.65-.84-.42.25-.83.66S281,446.63,281.05,446.68Z" style="fill:#263238"></path><path d="M279.55,445.43c0,.06.41-.09.84-.34s.75-.49.71-.55-.41.09-.84.33S279.52,445.37,279.55,445.43Z" style="fill:#263238"></path><path d="M278.91,443.24c0,.07.46.23,1,.37a2.63,2.63,0,0,0,1.12.12,2.49,2.49,0,0,0-1.06-.37A2.42,2.42,0,0,0,278.91,443.24Z" style="fill:#263238"></path><path d="M278.84,441.78a2.25,2.25,0,0,0,1.13.61,2.3,2.3,0,0,0,1.29.1,6.87,6.87,0,0,0-1.21-.35A6.2,6.2,0,0,0,278.84,441.78Z" style="fill:#263238"></path><path d="M282.14,445a3.89,3.89,0,0,0,1.34.28,8.29,8.29,0,0,0,1.49,0,4.32,4.32,0,0,0,.88-.16.71.71,0,0,0,.42-.35.52.52,0,0,0-.09-.57,2.49,2.49,0,0,0-3.18.07,2.53,2.53,0,0,0-.63.8.8.8,0,0,0-.11.35,4.17,4.17,0,0,1,.86-1,2.39,2.39,0,0,1,1.29-.5,2.11,2.11,0,0,1,1.57.45c.18.2,0,.43-.22.52a3.72,3.72,0,0,1-.82.16,9.51,9.51,0,0,1-1.45.07C282.66,445.08,282.15,445,282.14,445Z" style="fill:#263238"></path><path d="M282.47,445.15a1.28,1.28,0,0,0,.35-.89,2.31,2.31,0,0,0-.15-1.06,1.36,1.36,0,0,0-1-.91.54.54,0,0,0-.54.53,1.33,1.33,0,0,0,.1.64,3.43,3.43,0,0,0,.46.94,2.06,2.06,0,0,0,.64.71,8.51,8.51,0,0,0-.49-.8,4.71,4.71,0,0,1-.39-.92c-.12-.32-.14-.86.21-.85s.61.45.76.76a2.15,2.15,0,0,1,.19.95A4.42,4.42,0,0,1,282.47,445.15Z" style="fill:#263238"></path><path d="M260.27,439c0,.05.61.07,1.52.38a6.66,6.66,0,0,1,4.52,5.51c.13,1,0,1.56.08,1.56s.06-.14.09-.41a5.49,5.49,0,0,0,0-1.17,6.52,6.52,0,0,0-1.44-3.55,6.63,6.63,0,0,0-3.2-2.11,5,5,0,0,0-1.15-.21A1.57,1.57,0,0,0,260.27,439Z" style="fill:#263238"></path><path d="M264.27,430.76a74.28,74.28,0,0,0-1.93,8.52,36.16,36.16,0,0,0,1.09-4.23A37.52,37.52,0,0,0,264.27,430.76Z" style="fill:#263238"></path><path d="M269.45,445.06a11.31,11.31,0,0,0,3,.95,12.47,12.47,0,0,0,3.09.41c0-.08-1.37-.29-3-.66S269.47,445,269.45,445.06Z" style="fill:#263238"></path><path d="M265.37,444.19c-.06,0,.05.31.12.65s.09.63.17.64.17-.3.09-.7S265.43,444.15,265.37,444.19Z" style="fill:#263238"></path><path d="M264.24,442c-.06,0,0,.28.2.55s.35.44.41.4,0-.28-.19-.54S264.3,441.91,264.24,442Z" style="fill:#263238"></path><path d="M262.23,440.61c0,.07.28.13.56.3s.47.38.53.35,0-.36-.4-.57S262.23,440.54,262.23,440.61Z" style="fill:#263238"></path><path d="M260.76,439.86c0,.06.05.19.21.3s.32.13.36.08-.06-.2-.22-.3S260.8,439.8,260.76,439.86Z" style="fill:#263238"></path><path d="M223,286.28S258.31,387.11,250,394.74s-102.4,42.35-102.4,42.35L137.4,408.5l74-30L180,308.11a37.41,37.41,0,0,1,1.57-33.62l8.65,2Z" style="fill:#263238"></path><path d="M247.8,292s68,32.3,67.26,43.52-29.52,104.67-29.52,104.67l-28.11-6.73,18.42-83.13-94.33-50.54L208.58,282Z" style="fill:#263238"></path><path d="M218.5,382.92c.1-.19-1.34-1.09-3-2.34s-2.92-2.36-3.07-2.21.91,1.52,2.63,2.81S218.42,383.1,218.5,382.92Z" style="fill:#455a64"></path><path d="M221,378.8c0-.2-1.8-.5-4.06-.66s-4.11-.12-4.12.08,1.8.5,4.06.66S221,379,221,378.8Z" style="fill:#455a64"></path><path d="M227.35,309.69a.83.83,0,0,1,.14.22l.37.65,1.37,2.55c1.16,2.22,2.74,5.49,4.52,9.6s3.68,9.11,5.56,14.74S243,349.33,244.72,356s3.14,13,4.37,18.78q.91,4.35,1.72,8.24c.25,1.28.55,2.53.68,3.76a16.2,16.2,0,0,1,0,3.55,12.85,12.85,0,0,1-.74,3.15,5.12,5.12,0,0,1-1.8,2.26,24,24,0,0,1-3.91,2.39c-1.13.56-2,1-2.63,1.2l-.7.27a.86.86,0,0,1-.25.08l.23-.12.68-.33c.59-.28,1.47-.69,2.57-1.28a24.46,24.46,0,0,0,3.83-2.44,4.87,4.87,0,0,0,1.67-2.15,12.57,12.57,0,0,0,.69-3.06,16.17,16.17,0,0,0,0-3.47c-.13-1.2-.44-2.43-.7-3.73-.56-2.57-1.15-5.32-1.77-8.22-1.26-5.78-2.7-12.13-4.4-18.75s-3.51-12.87-5.37-18.49-3.74-10.6-5.44-14.75-3.26-7.41-4.36-9.65l-1.28-2.59-.32-.68A1.67,1.67,0,0,1,227.35,309.69Z" style="fill:#455a64"></path><path d="M281,124.39c.46-2.91,3.08-5.14,5.94-5.88a17.3,17.3,0,0,1,8.73.5,11,11,0,0,1,5.64,2.94,9.61,9.61,0,0,1,2,6.13c.06,2.19-.23,4.38,0,6.56a15.48,15.48,0,0,0,8.64,12.4c4.93,2.34,10.93,1.93,15.59,4.77a12.65,12.65,0,0,1-4.65,23.29,10.27,10.27,0,0,1-16,12,10.35,10.35,0,0,1-9,5.76,14.27,14.27,0,0,1-10.16-4.06,23.5,23.5,0,0,1-5.83-9.48c-3.07-8.77-2.49-18.33-2-27.61S277,136.23,281,124.39" style="fill:#263238"></path><path d="M312,151.39c5.4.25,8.39-6.21,8.25-9.29s-2.28-5.45-4.79-7.22a37.37,37.37,0,0,0-10.68-4.65c-7.14-1.45-5.56-7.27-15.73-6.86-4.68.19-11.48,2.69-14.17,6.52s-4.19,8.36-5.65,12.82" style="fill:#263238"></path><path d="M281.8,129.41l-1.8,3.46-29.59,50.56c-3.43,5.87-1.12,13.5,5.19,17.13h0c6.38,3.67,14.43,1.88,18-4,3.75-6.17,7.8-12.59,7.8-12.59s8.75,3.48,16.66-5.9c3.94-4.67,8.78-13.29,12.52-20.47A12.84,12.84,0,0,0,304.5,140Z" style="fill:#ffbe9d"></path><path d="M304.55,161.91a1.55,1.55,0,0,1-2.09.57,1.49,1.49,0,0,1-.65-2,1.55,1.55,0,0,1,2.09-.57A1.48,1.48,0,0,1,304.55,161.91Z" style="fill:#263238"></path><path d="M306.09,160.9c-.27.08-.83-1.28-2.26-2.14s-2.92-.77-3-1,.33-.34,1-.4a4.21,4.21,0,0,1,2.5.63,4.07,4.07,0,0,1,1.67,1.92C306.26,160.47,306.22,160.88,306.09,160.9Z" style="fill:#263238"></path><path d="M290.85,153.63a1.55,1.55,0,0,1-2.09.57,1.48,1.48,0,0,1-.65-2,1.55,1.55,0,0,1,2.09-.57A1.48,1.48,0,0,1,290.85,153.63Z" style="fill:#263238"></path><path d="M291.85,152.68c-.27.07-.83-1.28-2.27-2.14s-2.91-.78-3-1,.32-.34,1-.39a4.27,4.27,0,0,1,2.5.62,4.07,4.07,0,0,1,1.67,1.92C292,152.24,292,152.65,291.85,152.68Z" style="fill:#263238"></path><path d="M290.64,166.44a10.6,10.6,0,0,1,2.58,1c.39.18.78.32,1,.11a2.25,2.25,0,0,0,.41-1.23c.19-1.1.39-2.24.6-3.44.89-4.87,1.77-8.79,2-8.75s-.36,4-1.25,8.88l-.66,3.43a2.44,2.44,0,0,1-.68,1.55,1,1,0,0,1-.92.17,3.3,3.3,0,0,1-.67-.28A11,11,0,0,1,290.64,166.44Z" style="fill:#263238"></path><path d="M281.4,184a30.83,30.83,0,0,1-11.66-12.09s-.93,9.16,10,14.46Z" style="fill:#eb996e"></path><path d="M295.6,147.29c-.37.3-1.69-.75-3.49-1.56s-3.44-1.17-3.45-1.66c0-.22.45-.45,1.23-.49a6.3,6.3,0,0,1,2.93.61,6.47,6.47,0,0,1,2.36,1.83C295.65,146.64,295.78,147.14,295.6,147.29Z" style="fill:#263238"></path><path d="M308.06,156.44c-.44.17-1.23-.76-2.4-1.49s-2.33-1.1-2.35-1.58c0-.23.35-.46,1-.5a4.08,4.08,0,0,1,3.84,2.47C308.34,155.93,308.27,156.35,308.06,156.44Z" style="fill:#263238"></path><path d="M313.45,151.19s-7.09-.22-12.53-7.75c-3.58-4.94-8.59-9.07-10.35-8.74s-4.61,5.16-10.16,4.11c0,0-4.64,9.68-8.25,7.36s2-12.85,2-12.85L286.31,125l15.05,9.11,8.83,6.32,6.32,5.88Z" style="fill:#263238"></path><path d="M274.5,143.52c-.11-.16-5-5.61-8.6.6s3.4,8.54,3.51,8.37S274.5,143.52,274.5,143.52Z" style="fill:#ffbe9d"></path><path d="M268.87,149s-.15,0-.38,0a1.22,1.22,0,0,1-.82-.45,3.08,3.08,0,0,1,.15-3.12,4.07,4.07,0,0,1,1.2-1.38,1.46,1.46,0,0,1,1.29-.36.66.66,0,0,1,.47.67c0,.22-.13.32-.1.35s.19,0,.29-.31a.81.81,0,0,0,0-.53.94.94,0,0,0-.51-.51,1.78,1.78,0,0,0-1.69.31,4.31,4.31,0,0,0-1.37,1.52c-.69,1.28-.72,2.82,0,3.6a1.35,1.35,0,0,0,1.08.41C268.77,149.18,268.89,149.06,268.87,149Z" style="fill:#eb996e"></path><path d="M268,154.82s-.07.15-.31.32a2.18,2.18,0,0,1-1.17.37,2.26,2.26,0,0,1-1.7-.65,2.63,2.63,0,0,1-.76-2.1,2.85,2.85,0,0,1,4-2.21,1,1,0,0,1,.38.24,4.89,4.89,0,0,0-1.56-.28,2.73,2.73,0,0,0-1.56.56,2.63,2.63,0,0,0-1,1.73,2.39,2.39,0,0,0,.65,1.85,2.06,2.06,0,0,0,1.49.63A2.71,2.71,0,0,0,268,154.82Z" style="fill:#455a64"></path><path d="M294.15,124.23s.1.06.28.21l.33.28.4.42a15.47,15.47,0,0,1,2.09,3.07,22.62,22.62,0,0,0,3,4.56,7.1,7.1,0,0,0,2.62,1.75c1,.4,2.17.64,3.32,1a8.06,8.06,0,0,1,3.16,1.55,6.15,6.15,0,0,1,1.77,2.77,6.57,6.57,0,0,1,.23,3,6.82,6.82,0,0,1-.9,2.43,7.78,7.78,0,0,1-2.64,2.6,8.58,8.58,0,0,1-.91.44,1.57,1.57,0,0,1-.34.11s.45-.2,1.18-.66a7.78,7.78,0,0,0,2.52-2.61,6.68,6.68,0,0,0,.84-2.35,6.46,6.46,0,0,0-.26-2.83,5.77,5.77,0,0,0-1.69-2.62,7.73,7.73,0,0,0-3-1.49c-1.14-.33-2.29-.57-3.35-1A7.14,7.14,0,0,1,300,133a21.58,21.58,0,0,1-2.94-4.66,17.33,17.33,0,0,0-2-3.09l-.38-.44-.3-.29C294.23,124.33,294.14,124.24,294.15,124.23Z" style="fill:#455a64"></path><path d="M316.26,136.44a2.06,2.06,0,0,1,.61.4,5.51,5.51,0,0,1,1.25,1.55,6.79,6.79,0,0,1,.79,2.84,8,8,0,0,1-.66,3.55,13.4,13.4,0,0,1-4.05,5.07c-.65.52-1.2.91-1.59,1.17a2.91,2.91,0,0,1-.62.37s.8-.64,2.05-1.72a14.11,14.11,0,0,0,3.9-5,8,8,0,0,0,.66-3.4,6.82,6.82,0,0,0-.69-2.75A7.24,7.24,0,0,0,316.26,136.44Z" style="fill:#455a64"></path><path d="M289.07,122.61s0,.06.08.19a1.77,1.77,0,0,1,0,.59,2.89,2.89,0,0,1-1.12,1.84,11.1,11.1,0,0,1-2.89,1.37,8.13,8.13,0,0,0-3.08,2.17,8.23,8.23,0,0,0-1.8,3.32,8.67,8.67,0,0,0-.23,3.09,12,12,0,0,0,.75,2.79,2.59,2.59,0,0,1-.39-.69,7.91,7.91,0,0,1-.6-2.07A8.5,8.5,0,0,1,280,132a8.35,8.35,0,0,1,5.06-5.7,11.85,11.85,0,0,0,2.86-1.26,2.56,2.56,0,0,0,1.17-2.44Z" style="fill:#455a64"></path><path d="M284.83,166.58a2.92,2.92,0,0,0-1.69,2.37,2.07,2.07,0,0,0,1.3,1.69,2.62,2.62,0,0,0,3.06-.73,2.31,2.31,0,0,0-.26-3.06,2.07,2.07,0,0,0-3,.38" style="fill:#eb996e"></path><path d="M299.65,125.36c0,.07-.89-.59-2.41-1.32a15.71,15.71,0,0,0-6.32-1.53,15.52,15.52,0,0,0-6.38,1.28c-1.55.67-2.41,1.29-2.46,1.22s.17-.21.56-.5a10.87,10.87,0,0,1,1.74-1.05,14.26,14.26,0,0,1,6.55-1.47,14.43,14.43,0,0,1,6.48,1.72,11,11,0,0,1,1.7,1.13C299.49,125.14,299.67,125.33,299.65,125.36Z" style="fill:#FFFFFF"></path><path d="M285.82,164.88c.25.13-.69,1.69,0,3.59s2.42,2.74,2.3,3-.55.08-1.26-.32a4.56,4.56,0,0,1-2-2.38,4,4,0,0,1,.12-2.95C285.32,165.09,285.72,164.81,285.82,164.88Z" style="fill:#263238"></path><path d="M251.3,179.12s4.93-8.59,5.87-7.23S281.29,188.3,279.73,191s-6.13,5.53-6.13,5.53Z" style="fill:#FFFFFF"></path><path d="M342.52,273.73c4.5,1.11,13.29,3.16,16.09,3.47,5.77.64,5.83.14,5.78-.54-.13-1.82-10.11-1.51-8-2.81s12.28,1,12.06-.87c-.28-2.47-10.73-2-11.61-2s-.91-1.3-.11-1.23c1.15.08,13.27.72,13-1.71-.14-1.35-2.56-.91-2.56-.91s-11.37.24-11.45-.91,6.59-1.53,8.85-1.49,3.14-1,2.32-2c-.55-.67-7.47-.94-9.71-.93s-8.36.17-5.44-2.34,4.21-5.53,4-6.6a1.22,1.22,0,0,0-2.3-.06,14.22,14.22,0,0,1-2.4,3,9,9,0,0,1-2.53,1.83c-1.1.54-3.77,1.72-4.59,2.05" style="fill:#ffbe9d"></path><path d="M285.41,205.43,300.17,253l45.19,4.55-.86,17s-53.24,7.22-61.16-.71S264,232.26,264,232.26Z" style="fill:#FFFFFF"></path><path d="M216.54,186.23l-35,88.26,67,18.95-1-28.2L284,214.73a9,9,0,0,0-.2-10.82c-6.76-8.67-21.73-25.16-42.21-32.14C235.24,169.59,219.83,172.09,216.54,186.23Z" style="fill:#FFFFFF"></path><path d="M249,267.84c4.13,7.8-1.38,18.23-8.41,20s-16.91-4.68-17-13.5c-.14-11.92,4.67-17.72,8.74-18.76C237.49,254.28,244.82,260,249,267.84Z" style="fill:#263238"></path><path d="M249.3,268.42s-.26.29-.8.74a23.94,23.94,0,0,1-2.4,1.75,33.48,33.48,0,0,1-18.61,5.35,22.13,22.13,0,0,1-3-.21,4,4,0,0,1-1.08-.2c0-.09,1.55.08,4,0a36.82,36.82,0,0,0,18.42-5.3C248,269.31,249.24,268.34,249.3,268.42Z" style="fill:#fafafa"></path><path d="M245.85,263.59a3.12,3.12,0,0,1-.46.87,11.26,11.26,0,0,1-1.72,2.05,17,17,0,0,1-7.78,4.05,31.46,31.46,0,0,1-8.77.64c-1.12-.06-2-.14-2.65-.21a3.15,3.15,0,0,1-1-.17,33.11,33.11,0,0,1,3.62,0,36.11,36.11,0,0,0,8.64-.78,17.78,17.78,0,0,0,7.65-3.81A26.14,26.14,0,0,0,245.85,263.59Z" style="fill:#FFFFFF"></path><path d="M243,259.83s-.16.23-.51.58a13.8,13.8,0,0,1-1.62,1.34,20.27,20.27,0,0,1-6.21,3,20.68,20.68,0,0,1-6.88.77,15.79,15.79,0,0,1-2.08-.27c-.48-.11-.75-.18-.74-.22s1.09.09,2.84.12a22.77,22.77,0,0,0,12.87-3.74C242.1,260.49,242.92,259.77,243,259.83Z" style="fill:#fafafa"></path><path d="M238.71,257.32a5.21,5.21,0,0,1-1.56,1,18.18,18.18,0,0,1-4.2,1.56,19.09,19.09,0,0,1-4.45.54,5.13,5.13,0,0,1-1.85-.19,54.73,54.73,0,0,0,6.18-.85A54.22,54.22,0,0,0,238.71,257.32Z" style="fill:#FFFFFF"></path><path d="M249.52,275.63a3.37,3.37,0,0,1-.75.59,24.41,24.41,0,0,1-2.21,1.38,35.15,35.15,0,0,1-16.44,4.48,24.23,24.23,0,0,1-2.6-.06,2.85,2.85,0,0,1-.94-.14c0-.08,1.35,0,3.53-.16a41.3,41.3,0,0,0,16.28-4.44C248.33,276.29,249.47,275.55,249.52,275.63Z" style="fill:#FFFFFF"></path><path d="M247.35,282.44a8.49,8.49,0,0,1-2.06,1.41,22.16,22.16,0,0,1-11.61,2.69,8,8,0,0,1-2.46-.36,29.17,29.17,0,0,0,16.13-3.74Z" style="fill:#fafafa"></path><path d="M259.62,266.86c1.58,6.6-4.53,13.32-10.1,13.32s-11.71-6.72-10.1-13.32c2.18-8.91,6.87-12.3,10.1-12.3C253.67,254.56,258,260.24,259.62,266.86Z" style="fill:#FFFFFF"></path><path d="M259.62,266.86c1.58,6.6-4.53,13.32-10.1,13.32s-11.71-6.72-10.1-13.32c2.18-8.91,6.87-12.3,10.1-12.3C253.67,254.56,258,260.24,259.62,266.86Z" style="fill:#fff;opacity:0.30000000000000004"></path><path d="M256.09,276.62c1.74,6.08-3.67,12.56-8.86,12.78s-11.14-5.78-9.91-12c1.68-8.36,5.9-11.7,8.9-11.83C250.08,265.43,254.36,270.54,256.09,276.62Z" style="fill:#FFFFFF"></path><path d="M255.93,282.43a1.66,1.66,0,0,1-.41.24,5.34,5.34,0,0,1-1.33.4,5.81,5.81,0,0,1-6.68-4.31,5.87,5.87,0,0,1,.34-4.05,2.24,2.24,0,0,1,1.88-1.32,1.49,1.49,0,0,1,1.18.51,1.85,1.85,0,0,1,.46,1.2,3.05,3.05,0,0,1-1.07,2.22,5.14,5.14,0,0,1-2.17,1.25,5,5,0,0,1-4.68-.94,5.23,5.23,0,0,1-1.9-4.06,2.94,2.94,0,0,1,.8-2,2,2,0,0,1,2-.51,1.68,1.68,0,0,1,1.09,1.6,2.28,2.28,0,0,1-.7,1.63,4.19,4.19,0,0,1-2.7,1.13,4.85,4.85,0,0,1-2.16-.4,3.84,3.84,0,0,1-1.16-.76c-.23-.22-.32-.35-.31-.36a6.2,6.2,0,0,0,1.55.93,4.75,4.75,0,0,0,2.06.3,3.88,3.88,0,0,0,2.45-1.1,1.83,1.83,0,0,0,.56-1.36,1.26,1.26,0,0,0-.81-1.2,1.64,1.64,0,0,0-1.56.42,2.53,2.53,0,0,0-.64,1.72,4.74,4.74,0,0,0,1.74,3.65,4.56,4.56,0,0,0,4.22.83,4.64,4.64,0,0,0,1.95-1.12,2.6,2.6,0,0,0,.92-1.83,1.17,1.17,0,0,0-1.12-1.23,1.74,1.74,0,0,0-1.46,1.05,5.43,5.43,0,0,0-.35,3.72,5.66,5.66,0,0,0,1.68,2.84,5.88,5.88,0,0,0,4.55,1.37A10.28,10.28,0,0,0,255.93,282.43Z" style="fill:#fafafa"></path><path d="M249,289.27a9.07,9.07,0,0,0-1.55-3.2,6.55,6.55,0,0,0-3.11-2.11,2.36,2.36,0,0,0-2,.16c-.58.39-.84,1.3-.26,1.74a1.24,1.24,0,0,0,1,.26,1.34,1.34,0,0,0,.84-.56,2,2,0,0,0,.15-2,3.86,3.86,0,0,0-2.84-2.2,4.07,4.07,0,0,0-2.5.35c-.56.26-.82.5-.85.46a2,2,0,0,1,.75-.64,4,4,0,0,1,2.66-.53,4.17,4.17,0,0,1,3.22,2.37,2.47,2.47,0,0,1-.18,2.47,1.83,1.83,0,0,1-1.16.77,1.77,1.77,0,0,1-1.41-.37,1.43,1.43,0,0,1-.48-1.39,1.94,1.94,0,0,1,.78-1.16,2.78,2.78,0,0,1,2.46-.21,6.73,6.73,0,0,1,3.27,2.34,6.5,6.5,0,0,1,1.16,2.45A2.61,2.61,0,0,1,249,289.27Z" style="fill:#fafafa"></path><path d="M250.89,267.75c0,.05-.32.38-1,.66a5.16,5.16,0,0,1-5.53-1.17c-.54-.54-.72-1-.67-1s.36.3.91.74a5.79,5.79,0,0,0,5.17,1.09C250.44,267.89,250.85,267.68,250.89,267.75Z" style="fill:#fafafa"></path><g style="opacity:0.2"><path d="M244.76,288.8a6.25,6.25,0,0,1-1.9-1.52,2.2,2.2,0,0,1-.29-2.3,2.56,2.56,0,0,1,1.83-1.07,17.3,17.3,0,0,0,2.16-.32,5.45,5.45,0,0,0,3.07-2.86c.68-1.27,1.1-2.67,1.77-3.94a2.46,2.46,0,0,1,1.7-1.5c1.07-.11,1.84,1,2.16,2a9.23,9.23,0,0,1-2.31,9.11c-2.36,2.3-5.07,3.41-8.19,2.36"></path></g><path d="M269.74,257.93c-6.58-8.7-14.16-17.15-17.08-27.67-2.3-8.28-1.47-17-1.2-25.64s-.19-17.63-4.63-25-12.43-10.15-22.16-6.29a14.57,14.57,0,0,0-7.09,7.71c-7.28,20.7-9.49,36.8-10.82,58.71-.7,11.53-.43,23.25,2.52,34.43S218,296,226.92,303.39s21.16,11.05,32.39,8.32,20.82-12.47,22-24C282.35,276.88,276.33,266.63,269.74,257.93Zm-10.46,8c-1,4.06-4.35,7.11-8,9.19-4.83,2.78-10.57,4.32-16,3.24-6.67-1.33-12.15-6.43-15.34-12.45s-4.36-12.88-5-19.66c-1.71-18.23.17-36.86,2.23-55.06l22.12,35.11c5.59,9.75,13.15,18.35,17.93,28.52C258.85,258.34,260.17,262.23,259.28,266Z" style="fill:#455a64"></path><path d="M242.78,296.82a1.73,1.73,0,0,1-.71,0,8.85,8.85,0,0,1-1.93-.32,10.48,10.48,0,0,1-7.72-9.39,8.72,8.72,0,0,1,.07-1.95c.07-.45.14-.7.18-.69s-.08,1,.12,2.6a10.82,10.82,0,0,0,7.46,9.08C241.77,296.69,242.79,296.72,242.78,296.82Z" style="fill:#263238"></path><path d="M265.29,291.72c-.1,0-.14-.91-.64-2.27a9.61,9.61,0,0,0-8.4-6.42c-1.44-.11-2.34.08-2.35,0a5.08,5.08,0,0,1,2.37-.36,9.5,9.5,0,0,1,5.46,1.91,9.38,9.38,0,0,1,3.27,4.76A5.27,5.27,0,0,1,265.29,291.72Z" style="fill:#263238"></path><path d="M274.27,278.2c-.08.05-.52-.94-1.63-2.22a11.23,11.23,0,0,0-12-3.41c-1.62.49-2.51,1.1-2.56,1s.18-.21.59-.47a9.24,9.24,0,0,1,1.86-.9,10.89,10.89,0,0,1,12.35,3.53,9.55,9.55,0,0,1,1.1,1.74C274.23,277.93,274.3,278.19,274.27,278.2Z" style="fill:#263238"></path><path d="M257,214.4c-.11.09-.92-.68-1.81-1.72s-1.53-2-1.42-2.06.92.68,1.81,1.72S257.12,214.31,257,214.4Z" style="fill:#fff"></path><path d="M259.06,209a15.11,15.11,0,0,1,.62-2.7,15.79,15.79,0,0,1,.6-2.7,7.45,7.45,0,0,1-1.22,5.4Z" style="fill:#fff"></path><path d="M265.47,211.76c-.1-.1.44-.85,1.21-1.68s1.49-1.43,1.6-1.33-.44.85-1.21,1.68S265.58,211.85,265.47,211.76Z" style="fill:#fff"></path><path d="M257.89,193a17.94,17.94,0,0,1-1.26,2.68,17.85,17.85,0,0,1-1.23,2.69,8.46,8.46,0,0,1,2.49-5.37Z" style="fill:#fff"></path><path d="M253.67,188.32a8.88,8.88,0,0,1-1.19-2.81,9,9,0,0,1-.69-3,8.87,8.87,0,0,1,1.18,2.81A9.47,9.47,0,0,1,253.67,188.32Z" style="fill:#fff"></path><path d="M266.26,193.94a16.8,16.8,0,0,1-4.21-4.2,17.26,17.26,0,0,1,4.21,4.2Z" style="fill:#fff"></path><path d="M276.09,200.46a12.12,12.12,0,0,1-3.61.24,12.81,12.81,0,0,1-3.6-.28,25.13,25.13,0,0,1,7.21,0Z" style="fill:#fff"></path><path d="M274.72,208.6c-.09-.12.88-1,2.16-1.89a7.88,7.88,0,0,1,2.48-1.47,8.45,8.45,0,0,1-2.17,1.89A8,8,0,0,1,274.72,208.6Z" style="fill:#fff"></path><path d="M272.28,186.72c.11.1-.34.8-1,1.57s-1.29,1.33-1.4,1.24.34-.8,1-1.57S272.17,186.63,272.28,186.72Z" style="fill:#fff"></path><path d="M263,182.34c-.12.08-.77-.65-1.45-1.63s-1.14-1.84-1-1.92.77.64,1.45,1.62S263.15,182.26,263,182.34Z" style="fill:#fff"></path><path d="M275.79,253.78a6.9,6.9,0,0,1,.37-2.65,7.18,7.18,0,0,1,.88-2.54,7.2,7.2,0,0,1-.37,2.66A7.08,7.08,0,0,1,275.79,253.78Z" style="fill:#fff"></path><path d="M287.5,244.6a5.1,5.1,0,0,1-2.26-.25c-1.22-.28-2.18-.61-2.14-.75a9.67,9.67,0,0,1,4.4,1Z" style="fill:#fff"></path><path d="M291.37,245.16a12,12,0,0,1,1.26-4.79,6.15,6.15,0,0,1-.37,2.46A6,6,0,0,1,291.37,245.16Z" style="fill:#fff"></path><path d="M285.56,257.14a6.4,6.4,0,0,1-2.09-1.48c-1.07-.92-1.85-1.76-1.76-1.87a6.49,6.49,0,0,1,2.1,1.48C284.87,256.19,285.66,257,285.56,257.14Z" style="fill:#fff"></path><path d="M292.27,256.41a5.55,5.55,0,0,1,.08-2.79,5.46,5.46,0,0,1,1-2.61,62.29,62.29,0,0,1-1.06,5.4Z" style="fill:#fff"></path><path d="M288.12,268.2a10.28,10.28,0,0,1-2.86-1.57,10.17,10.17,0,0,1-2.57-2,10.28,10.28,0,0,1,2.86,1.57A10.44,10.44,0,0,1,288.12,268.2Z" style="fill:#fff"></path><path d="M301.32,263.82a8.52,8.52,0,0,1-2,2.1,8.36,8.36,0,0,1-2.38,1.71,16.75,16.75,0,0,1,4.41-3.81Z" style="fill:#fff"></path><path d="M306.93,258.05a12.3,12.3,0,0,1-3.6.36,12.64,12.64,0,0,1-3.61-.16,25.14,25.14,0,0,1,7.21-.2Z" style="fill:#fff"></path><path d="M304.54,273.94a27.64,27.64,0,0,1-3.31-.11,32.6,32.6,0,0,1-3.31,0,6.65,6.65,0,0,1,3.32-.55A6.77,6.77,0,0,1,304.54,273.94Z" style="fill:#fff"></path><path d="M307.29,268.21a6,6,0,0,1,.86-2.32,6.17,6.17,0,0,1,1.33-2.09,5.93,5.93,0,0,1-.86,2.32A6.31,6.31,0,0,1,307.29,268.21Z" style="fill:#fff"></path><path d="M319.14,271.83a19.62,19.62,0,0,1-2.1-2.5,20.26,20.26,0,0,1-2.1-2.5,10.54,10.54,0,0,1,4.2,5Z" style="fill:#fff"></path><path d="M323.34,259.26a21.35,21.35,0,0,1-3.51-.33,20.9,20.9,0,0,1-3.49-.41,8.78,8.78,0,0,1,3.55-.11A8.67,8.67,0,0,1,323.34,259.26Z" style="fill:#fff"></path><path d="M331.31,260.17a17.92,17.92,0,0,1-3,3,17.74,17.74,0,0,1-3.39,2.59,17.78,17.78,0,0,1,3.05-3A17.51,17.51,0,0,1,331.31,260.17Z" style="fill:#fff"></path><path d="M332,271.23a13.8,13.8,0,0,1-2.21-1.59,15,15,0,0,1-2.2-1.61,4.93,4.93,0,0,1,2.5,1.19C331.31,270.12,332.06,271.14,332,271.23Z" style="fill:#fff"></path><path d="M338.79,261.83a7.84,7.84,0,0,1-1.28,2.54,8,8,0,0,1-1.72,2.27,15.69,15.69,0,0,1,3-4.81Z" style="fill:#fff"></path><path d="M341.37,269c.09.11-.14.47-.53.8s-.78.51-.87.4.14-.47.53-.8S341.28,268.92,341.37,269Z" style="fill:#fff"></path><path d="M194.79,266.42a5.79,5.79,0,0,1-1.59-2.7,5.93,5.93,0,0,1-.45-3.1,27.85,27.85,0,0,1,.94,2.93A27,27,0,0,1,194.79,266.42Z" style="fill:#fff"></path><path d="M190.38,272.43a8.89,8.89,0,0,1-2.2-2.13,9.15,9.15,0,0,1-1.81-2.47,8.89,8.89,0,0,1,2.2,2.13A9.15,9.15,0,0,1,190.38,272.43Z" style="fill:#fff"></path><path d="M204.11,269.23a11.93,11.93,0,0,1,0,5,6.32,6.32,0,0,1-.24-2.5A6.21,6.21,0,0,1,204.11,269.23Z" style="fill:#fff"></path><path d="M201.8,251.21c.11.1-1,1.53-2.19,3.45s-1.89,3.6-2,3.55a10.23,10.23,0,0,1,1.59-3.82A9.73,9.73,0,0,1,201.8,251.21Z" style="fill:#fff"></path><path d="M200.26,241.12a9.29,9.29,0,0,1-1.31,2.77,8.7,8.7,0,0,1-1.76,2.51,9.29,9.29,0,0,1,1.31-2.77A8.93,8.93,0,0,1,200.26,241.12Z" style="fill:#fff"></path><path d="M220.54,255.63a9.41,9.41,0,0,1-.88-2.95,9.24,9.24,0,0,1-.36-3.05,18.39,18.39,0,0,1,1.24,6Z" style="fill:#fff"></path><path d="M222.25,245.53a6.41,6.41,0,0,1-2.42-.71,6.21,6.21,0,0,1-2.23-1.2,6.46,6.46,0,0,1,2.42.71A6.21,6.21,0,0,1,222.25,245.53Z" style="fill:#fff"></path><path d="M230,253.51a10.76,10.76,0,0,1-2.39.4,11,11,0,0,1-2.41.34,4.21,4.21,0,0,1,2.33-.86A4.17,4.17,0,0,1,230,253.51Z" style="fill:#fff"></path><path d="M205.4,262.23c.09.11-.72.8-2,1a2.86,2.86,0,0,1-2.23-.24,18.63,18.63,0,0,1,2.13-.27A20.66,20.66,0,0,1,205.4,262.23Z" style="fill:#fff"></path><path d="M198.84,278.63c-.14,0-.48-.69-.76-1.63s-.4-1.73-.27-1.77.48.68.77,1.62S199,278.58,198.84,278.63Z" style="fill:#fff"></path><path d="M205.6,228a6,6,0,0,1-.27,2.45,5.86,5.86,0,0,1-.77,2.34,11.43,11.43,0,0,1,1-4.79Z" style="fill:#fff"></path><g style="opacity:0.2"><path d="M268.94,245.72a15.86,15.86,0,0,0,6.22.91A30.86,30.86,0,0,0,287.43,244c3.75-1.79,7.58-5.63,7.06-9.75,0,0-17.45,6.85-25.72,11.28"></path></g><g style="opacity:0.2"><path d="M217,200.61c-.4,9.27-3.87,33.71.55,41.86a25.8,25.8,0,0,0,38.82,7.84,64.92,64.92,0,0,1-10.9,2.41,21.91,21.91,0,0,1-11-1.38,24.92,24.92,0,0,1-6.19-4.14,34.09,34.09,0,0,1-7.32-8.48c-3.14-5.37-4.21-11.69-4.55-17.9s.39-13.9.56-20.21"></path></g><rect x="323.93" y="194.62" width="4.98" height="24.23" transform="translate(208.54 -161.23) rotate(39.89)" style="fill:#263238"></rect><ellipse cx="340.24" cy="189.59" rx="14.41" ry="11.38" transform="translate(-16.54 345.84) rotate(-52.78)" style="fill:#263238"></ellipse><ellipse cx="341.92" cy="191.09" rx="14.41" ry="11.15" transform="translate(-17.07 347.77) rotate(-52.78)" style="fill:#455a64"></ellipse><ellipse cx="341.22" cy="190.55" rx="13.15" ry="10.17" transform="translate(-16.92 346.99) rotate(-52.78)" style="fill:#e0e0e0"></ellipse><path d="M311.42,223.09l4.87.69c4.48.24,7,.55,8.37-.43,1.89-1.33-.14-3.22-.14-3.22s3.37-.6,3.36-2.6c0-1.36-1.49-1.74-1.49-1.74s3-.67,3.73-1.76c1-1.48-.86-2.64-.86-2.64,4.21-1.78,4.22-4.18,3.37-4.55s-4.07.55-4.07.55c-2.64.34-9.87,1.39-6.73-2s4.27-7.23,3.86-8.47a1.45,1.45,0,0,0-2.73.25,16.9,16.9,0,0,1-2.46,4,11.16,11.16,0,0,1-2.75,2.56c-1.23.8-2.31,1.43-3.24,1.94l-6.59,3.7Z" style="fill:#ffbe9d"></path><path d="M232.5,173.62a14.92,14.92,0,0,0-14.92,15v37c0,9.35,5.53,21.44,13.87,25.66h0a24.9,24.9,0,0,0,20.91.72l62-26.15-6.62-22.22-61,18.22s.43-18.53.63-33.16a14.91,14.91,0,0,0-14.92-15.12Z" style="fill:#FFFFFF"></path><path d="M307.77,203.68l-.24.1-.72.26L304,205l-10.22,3.31c-8.64,2.75-20.62,6.46-33.93,10.25-4.54,1.29-8.94,2.5-13,3.6l-.33.09v-.33c.19-10.56.35-19.7.47-26.24.08-3.23.14-5.81.19-7.63,0-.86.05-1.53.07-2a5.47,5.47,0,0,1,0-.7,3.2,3.2,0,0,1,0,.71c0,.5,0,1.18,0,2,0,1.82,0,4.4,0,7.62-.07,6.55-.17,15.69-.29,26.24l-.31-.24c4.08-1.11,8.48-2.33,13-3.63,13.31-3.78,25.3-7.43,34-10.09L304,204.78l2.8-.84.73-.21A1,1,0,0,1,307.77,203.68Z" style="fill:#263238"></path><path d="M313.53,225.77a2.29,2.29,0,0,1-.35.18l-1.07.49L308,228.3,292.72,235l-22.65,9.92c-4.28,1.83-8.71,3.88-13.43,5.75a55.36,55.36,0,0,1-7.39,2.35,29.25,29.25,0,0,1-7.95.84,21.07,21.07,0,0,1-7.8-1.79A23.73,23.73,0,0,1,227,247.8,32.16,32.16,0,0,1,219,235.65a29.22,29.22,0,0,1-1.71-6.62c-.14-1.1-.28-2.18-.34-3.25s-.16-2.12-.2-3.16c-.18-4.14-.2-8-.16-11.52.08-7,.35-12.73.55-16.67.12-1.94.21-3.46.27-4.52,0-.5.07-.89.09-1.18s.05-.4.05-.39a2.38,2.38,0,0,1,0,.4c0,.29,0,.68,0,1.18,0,1.06-.1,2.58-.18,4.52-.14,3.94-.35,9.63-.38,16.66,0,3.52,0,7.37.22,11.5s.51,8.57,2.27,12.88a31.76,31.76,0,0,0,8,12,23.43,23.43,0,0,0,6.35,4.19,20.64,20.64,0,0,0,7.61,1.74,28.7,28.7,0,0,0,7.81-.83,53.34,53.34,0,0,0,7.32-2.32c4.7-1.85,9.15-3.89,13.42-5.71l22.7-9.81,15.32-6.58,4.17-1.76,1.09-.45A1.73,1.73,0,0,1,313.53,225.77Z" style="fill:#263238"></path><path d="M226.38,201.77c-.12.08-.85-.85-1.63-2.06a6.92,6.92,0,0,1-1.19-2.34,7,7,0,0,1,1.63,2.06A6.5,6.5,0,0,1,226.38,201.77Z" style="fill:#fff"></path><path d="M238.8,198.12a14.09,14.09,0,0,1-2.06,5,14.09,14.09,0,0,1,2.06-5Z" style="fill:#fff"></path><path d="M232.27,189.9c-.12.09-.84-.69-1.63-1.74s-1.32-2-1.2-2,.84.69,1.62,1.73A5.75,5.75,0,0,1,232.27,189.9Z" style="fill:#fff"></path><path d="M240.24,183.52a5.21,5.21,0,0,1-4.6-.6,12.41,12.41,0,0,1,2.29.32A11.93,11.93,0,0,1,240.24,183.52Z" style="fill:#fff"></path><path d="M230.43,215a13.88,13.88,0,0,1-.37-3.8,14.57,14.57,0,0,1,.16-3.81,13.88,13.88,0,0,1,.37,3.8A14.57,14.57,0,0,1,230.43,215Z" style="fill:#fff"></path><path d="M224.13,216.91a8.91,8.91,0,0,1-1.58-2.57,8.78,8.78,0,0,1-1.12-2.79,8.6,8.6,0,0,1,1.58,2.56A8.7,8.7,0,0,1,224.13,216.91Z" style="fill:#fff"></path><path d="M241.84,211.15a13.21,13.21,0,0,1-1.81,3.23,13.65,13.65,0,0,1-2.25,2.94,26,26,0,0,1,4.06-6.17Z" style="fill:#fff"></path><path d="M235.45,225.92a17.31,17.31,0,0,1-4.17-.85,17.06,17.06,0,0,1-4-1.35,35.09,35.09,0,0,1,8.21,2.2Z" style="fill:#fff"></path><path d="M231.42,233.37a11.25,11.25,0,0,1-2.24,2.48,11,11,0,0,1-2.6,2.1,11.07,11.07,0,0,1,2.24-2.48A11.2,11.2,0,0,1,231.42,233.37Z" style="fill:#fff"></path><path d="M237.73,246a10.23,10.23,0,0,1-.13-3.21,10.1,10.1,0,0,1,.39-3.19,9.57,9.57,0,0,1,.13,3.21A10.1,10.1,0,0,1,237.73,246Z" style="fill:#fff"></path><path d="M246.89,233.53a13,13,0,0,1-3-1.94,12.34,12.34,0,0,1-2.7-2.35,12.32,12.32,0,0,1,3,1.94A12.13,12.13,0,0,1,246.89,233.53Z" style="fill:#fff"></path><path d="M256.48,239.82a60.43,60.43,0,0,1-5.12,4.28,8.08,8.08,0,0,1,2.28-2.47A8.3,8.3,0,0,1,256.48,239.82Z" style="fill:#fff"></path><path d="M252.24,231.78a9,9,0,0,1-.46-3,9.11,9.11,0,0,1,.06-3,8.74,8.74,0,0,1,.46,3A9,9,0,0,1,252.24,231.78Z" style="fill:#fff"></path><path d="M263.46,228.39a30.83,30.83,0,0,1-2.64-2.09,29.59,29.59,0,0,1-2.74-2,9.81,9.81,0,0,1,5.38,4Z" style="fill:#fff"></path><path d="M273.28,235.78a13.71,13.71,0,0,1-3.65.95,14,14,0,0,1-3.76.45,14.09,14.09,0,0,1,3.66-1A13.62,13.62,0,0,1,273.28,235.78Z" style="fill:#fff"></path><path d="M277.49,224.17a28.94,28.94,0,0,1-2.93,2.17,33.31,33.31,0,0,1-2.88,2.24,12.09,12.09,0,0,1,5.81-4.41Z" style="fill:#fff"></path><path d="M275.89,218.76a20.49,20.49,0,0,1-8.81.4,33.3,33.3,0,0,1,4.4-.24A33.22,33.22,0,0,1,275.89,218.76Z" style="fill:#fff"></path><path d="M289.3,226a11.39,11.39,0,0,1-2.22,2.59,11.15,11.15,0,0,1-2.59,2.22,11.71,11.71,0,0,1,2.22-2.59A11.39,11.39,0,0,1,289.3,226Z" style="fill:#fff"></path><path d="M288.5,220.37a16.09,16.09,0,0,1-3.36-2.2,16.26,16.26,0,0,1-3.05-2.61,29.76,29.76,0,0,1,6.41,4.81Z" style="fill:#fff"></path><path d="M300.06,209.32a14.48,14.48,0,0,1-1.68,3.43,14.24,14.24,0,0,1-2.14,3.17,14.3,14.3,0,0,1,1.69-3.43A14,14,0,0,1,300.06,209.32Z" style="fill:#fff"></path><path d="M307.92,224a33.71,33.71,0,0,1-4.5-.48,35.24,35.24,0,0,1-4.5-.55,13.94,13.94,0,0,1,4.55,0A14.35,14.35,0,0,1,307.92,224Z" style="fill:#fff"></path><path d="M306.26,220.77a15.58,15.58,0,0,1-.61-5.6,7.56,7.56,0,0,1,.57,2.77A8.06,8.06,0,0,1,306.26,220.77Z" style="fill:#fff"></path><path d="M225.83,177.92a16.56,16.56,0,0,1-2.23,3.43,15.61,15.61,0,0,1-2.64,3.13,16.47,16.47,0,0,1,2.23-3.44A15.72,15.72,0,0,1,225.83,177.92Z" style="fill:#fff"></path></g></svg>